<svg width="42" height="42" viewBox="0 0 42 42" fill="none" xmlns="http://www.w3.org/2000/svg">
<path d="M21.0383 0.157471C9.46328 0.157471 0.0771484 9.70189 0.0771484 21.4765C0.0771484 30.8959 6.08315 38.8873 14.4116 41.7063C15.4592 41.9037 15.8438 41.2438 15.8438 40.6807C15.8438 40.1724 15.8244 38.4929 15.8153 36.7115C9.98394 38.0012 8.75345 34.1961 8.75345 34.1961C7.79994 31.7319 6.42609 31.0766 6.42609 31.0766C4.52429 29.7535 6.56945 29.7806 6.56945 29.7806C8.67431 29.9307 9.78262 31.9776 9.78262 31.9776C11.6521 35.2369 14.6862 34.2946 15.8823 33.7499C16.0705 32.3723 16.6137 31.4311 17.2131 30.8991C12.5574 30.36 7.66318 28.5319 7.66318 20.363C7.66318 18.0354 8.48201 16.1336 9.82288 14.6406C9.60525 14.1032 8.88778 11.9352 10.0259 8.99863C10.0259 8.99863 11.7861 8.42565 15.7917 11.1839C17.4638 10.7116 19.2569 10.4747 21.0383 10.4666C22.8196 10.4747 24.6142 10.7116 26.2893 11.1839C30.2901 8.42565 32.0478 8.99863 32.0478 8.99863C33.1888 11.9352 32.4709 14.1032 32.2533 14.6406C33.5973 16.1336 34.4106 18.0354 34.4106 20.363C34.4106 28.5514 29.507 30.3543 24.8394 30.8821C25.5913 31.5437 26.2612 32.8411 26.2612 34.8302C26.2612 37.6824 26.2369 39.9782 26.2369 40.6807C26.2369 41.2481 26.6142 41.9128 27.6767 41.7035C36.0007 38.8813 41.9991 30.8927 41.9991 21.4765C41.9991 9.70189 32.6143 0.157471 21.0383 0.157471Z" fill="#336975"/>
<path d="M8.01644 30.7671C7.97028 30.8733 7.80644 30.9048 7.65719 30.832C7.50516 30.7625 7.41977 30.6181 7.46906 30.5118C7.51418 30.4027 7.67836 30.3727 7.83005 30.4451C7.98243 30.515 8.0692 30.6608 8.01644 30.7671Z" fill="#336975"/>
<path d="M8.86555 31.7302C8.76559 31.8244 8.57016 31.7807 8.43757 31.6317C8.30046 31.4831 8.27477 31.2843 8.37613 31.1886C8.47922 31.0944 8.66874 31.1385 8.8062 31.2871C8.9433 31.4375 8.97003 31.6349 8.86555 31.7302Z" fill="#336975"/>
<path d="M9.69216 32.958C9.56373 33.0487 9.35373 32.9637 9.22391 32.7741C9.09548 32.5845 9.09548 32.3571 9.22668 32.266C9.35685 32.175 9.56373 32.2569 9.69528 32.445C9.82336 32.6374 9.82336 32.8652 9.69216 32.958Z" fill="#336975"/>
<path d="M10.8237 34.1442C10.7088 34.273 10.4641 34.2385 10.285 34.0626C10.1017 33.8907 10.0507 33.6468 10.1659 33.5179C10.2822 33.3887 10.5283 33.425 10.7088 33.5995C10.8907 33.771 10.9462 34.0167 10.8237 34.1442Z" fill="#336975"/>
<path d="M12.3856 34.833C12.3349 34.9999 12.0992 35.0758 11.8618 35.0049C11.6247 34.9318 11.4696 34.7362 11.5175 34.5675C11.5668 34.3994 11.8035 34.3203 12.0426 34.3962C12.2794 34.469 12.4349 34.6631 12.3856 34.833Z" fill="#336975"/>
<path d="M14.1009 34.9608C14.1068 35.1366 13.9055 35.2824 13.6563 35.2853C13.4057 35.2913 13.203 35.149 13.2002 34.976C13.2002 34.7984 13.397 34.654 13.6476 34.6498C13.8968 34.6448 14.1009 34.7861 14.1009 34.9608Z" fill="#336975"/>
<path d="M15.6974 34.6843C15.7273 34.8559 15.5541 35.0321 15.3066 35.0787C15.0632 35.1242 14.838 35.0183 14.8071 34.8481C14.7769 34.6723 14.9532 34.4961 15.1962 34.4506C15.444 34.4068 15.6658 34.5099 15.6974 34.6843Z" fill="#336975"/>
</svg>
