<svg width="42" height="42" viewBox="0 0 42 42" fill="none" xmlns="http://www.w3.org/2000/svg">
<path fill-rule="evenodd" clip-rule="evenodd" d="M21 0C9.40202 0 0 9.40202 0 21C0 32.598 9.40202 42 21 42C32.598 42 42 32.598 42 21C42 9.40202 32.598 0 21 0ZM10.0814 17.3931H14.8405V31.6921H10.0814V17.3931ZM15.1539 12.9699C15.123 11.5679 14.1204 10.5 12.4924 10.5C10.8643 10.5 9.79998 11.5679 9.79998 12.9699C9.79998 14.3428 10.8329 15.4414 12.4306 15.4414H12.461C14.1204 15.4414 15.1539 14.3428 15.1539 12.9699ZM26.524 17.0573C29.6557 17.0573 32.0035 19.1015 32.0035 23.4935L32.0033 31.6921H27.2445V24.0421C27.2445 22.1206 26.5558 20.8094 24.833 20.8094C23.5182 20.8094 22.7351 21.6934 22.3911 22.5471C22.2653 22.8531 22.2344 23.2794 22.2344 23.7068V31.6925H17.4748C17.4748 31.6925 17.5375 18.7352 17.4748 17.3935H22.2344V19.4188C22.866 18.4452 23.9973 17.0573 26.524 17.0573Z" fill="#336975"/>
</svg>
