<svg width="1440" height="560" viewBox="0 0 1440 560" fill="none" xmlns="http://www.w3.org/2000/svg">
<g clip-path="url(#clip0)">
<path d="M-91.9902 373.13L111.82 361.64" stroke="#234852" stroke-opacity="0.2" stroke-width="1.5"/>
<path d="M-91.9902 373.13L78.4898 516.99" stroke="#234852" stroke-opacity="0.2" stroke-width="1.5"/>
<path d="M-82.21 496.6L78.49 516.99" stroke="#234852" stroke-opacity="0.2" stroke-width="1.5"/>
<path d="M-82.21 496.6L111.82 361.64" stroke="#234852" stroke-opacity="0.2" stroke-width="1.5"/>
<path d="M-82.21 496.6L112.35 670.38" stroke="#234852" stroke-opacity="0.2" stroke-width="1.5"/>
<path d="M-104.34 665.27L78.4901 516.99" stroke="#234852" stroke-opacity="0.2" stroke-width="1.5"/>
<path d="M-104.34 665.27L207.39 537.52" stroke="#234852" stroke-opacity="0.2" stroke-width="1.5"/>
<path d="M111.82 361.64L251.97 352.23" stroke="#234852" stroke-opacity="0.2" stroke-width="1.5"/>
<path d="M111.82 361.64L78.4902 516.99" stroke="#234852" stroke-opacity="0.2" stroke-width="1.5"/>
<path d="M111.82 361.64L207.39 537.52" stroke="#234852" stroke-opacity="0.2" stroke-width="1.5"/>
<path d="M111.82 361.64L345.47 503.68" stroke="#234852" stroke-opacity="0.2" stroke-width="1.5"/>
<path d="M78.4902 516.99L207.39 537.52" stroke="#234852" stroke-opacity="0.2" stroke-width="1.5"/>
<path d="M78.4902 516.99L112.35 670.38" stroke="#234852" stroke-opacity="0.2" stroke-width="1.5"/>
<path d="M251.97 352.23L388.21 402.51" stroke="#234852" stroke-opacity="0.2" stroke-width="1.5"/>
<path d="M251.97 352.23L345.47 503.68" stroke="#234852" stroke-opacity="0.2" stroke-width="1.5"/>
<path d="M251.971 352.23L207.391 537.52" stroke="#234852" stroke-opacity="0.2" stroke-width="1.5"/>
<path d="M207.391 537.52L245.061 648.37" stroke="#234852" stroke-opacity="0.2" stroke-width="1.5"/>
<path d="M207.391 537.52L345.471 503.68" stroke="#234852" stroke-opacity="0.2" stroke-width="1.5"/>
<path d="M207.391 537.52L112.351 670.38" stroke="#234852" stroke-opacity="0.2" stroke-width="1.5"/>
<path d="M245.061 648.37L345.471 503.68" stroke="#234852" stroke-opacity="0.2" stroke-width="1.5"/>
<path d="M245.06 648.37L78.4902 516.99" stroke="#234852" stroke-opacity="0.2" stroke-width="1.5"/>
<path d="M388.21 402.51L345.47 503.68" stroke="#234852" stroke-opacity="0.2" stroke-width="1.5"/>
<path d="M388.21 402.51L494.04 348.36" stroke="#234852" stroke-opacity="0.2" stroke-width="1.5"/>
<path d="M388.21 402.51L517.66 537.57" stroke="#234852" stroke-opacity="0.2" stroke-width="1.5"/>
<path d="M388.211 402.51L207.391 537.52" stroke="#234852" stroke-opacity="0.2" stroke-width="1.5"/>
<path d="M345.47 503.68L400.41 649.22" stroke="#234852" stroke-opacity="0.2" stroke-width="1.5"/>
<path d="M345.47 503.68L517.66 537.57" stroke="#234852" stroke-opacity="0.2" stroke-width="1.5"/>
<path d="M400.41 649.22L517.66 537.57" stroke="#234852" stroke-opacity="0.2" stroke-width="1.5"/>
<path d="M400.411 649.22L207.391 537.52" stroke="#234852" stroke-opacity="0.2" stroke-width="1.5"/>
<path d="M494.04 348.36L644.47 369.1" stroke="#234852" stroke-opacity="0.2" stroke-width="1.5"/>
<path d="M494.04 348.36L517.66 537.57" stroke="#234852" stroke-opacity="0.2" stroke-width="1.5"/>
<path d="M494.04 348.36L345.47 503.68" stroke="#234852" stroke-opacity="0.2" stroke-width="1.5"/>
<path d="M494.04 348.36L251.97 352.23" stroke="#234852" stroke-opacity="0.2" stroke-width="1.5"/>
<path d="M517.661 537.57L495.311 655.56" stroke="#234852" stroke-opacity="0.2" stroke-width="1.5"/>
<path d="M644.47 369.1L799.27 358.79" stroke="#234852" stroke-opacity="0.2" stroke-width="1.5"/>
<path d="M692.2 677.1L861.59 549.09" stroke="#234852" stroke-opacity="0.2" stroke-width="1.5"/>
<path d="M807.401 240.38L799.271 358.79" stroke="#234852" stroke-opacity="0.2" stroke-width="1.5"/>
<path d="M807.4 240.38L948.13 187.69" stroke="#234852" stroke-opacity="0.2" stroke-width="1.5"/>
<path d="M807.4 240.38L644.47 369.1" stroke="#234852" stroke-opacity="0.2" stroke-width="1.5"/>
<path d="M799.271 358.79L966.94 385.7" stroke="#234852" stroke-opacity="0.2" stroke-width="1.5"/>
<path d="M799.271 358.79L861.591 549.09" stroke="#234852" stroke-opacity="0.2" stroke-width="1.5"/>
<path d="M799.271 358.79L948.13 187.69" stroke="#234852" stroke-opacity="0.2" stroke-width="1.5"/>
<path d="M799.271 358.79L1011.24 543.94" stroke="#234852" stroke-opacity="0.2" stroke-width="1.5"/>
<path d="M861.59 549.09L800.42 640.32" stroke="#234852" stroke-opacity="0.2" stroke-width="1.5"/>
<path d="M861.59 549.09L1011.24 543.94" stroke="#234852" stroke-opacity="0.2" stroke-width="1.5"/>
<path d="M861.59 549.09L965.21 696.5" stroke="#234852" stroke-opacity="0.2" stroke-width="1.5"/>
<path d="M980.01 -93.48L1130.23 100.42" stroke="#234852" stroke-opacity="0.2" stroke-width="1.5"/>
<path d="M948.13 187.69L1115.91 229.83" stroke="#234852" stroke-opacity="0.2" stroke-width="1.5"/>
<path d="M948.13 187.69L966.94 385.7" stroke="#234852" stroke-opacity="0.2" stroke-width="1.5"/>
<path d="M948.13 187.69L1130.23 100.42" stroke="#234852" stroke-opacity="0.2" stroke-width="1.5"/>
<path d="M966.94 385.7L1011.24 543.94" stroke="#234852" stroke-opacity="0.2" stroke-width="1.5"/>
<path d="M966.94 385.7L1109.38 505.77" stroke="#234852" stroke-opacity="0.2" stroke-width="1.5"/>
<path d="M966.94 385.7L1150.8 343.08" stroke="#234852" stroke-opacity="0.2" stroke-width="1.5"/>
<path d="M966.94 385.7L861.59 549.09" stroke="#234852" stroke-opacity="0.2" stroke-width="1.5"/>
<path d="M1011.24 543.94L1109.38 505.77" stroke="#234852" stroke-opacity="0.2" stroke-width="1.5"/>
<path d="M1011.24 543.94L965.21 696.5" stroke="#234852" stroke-opacity="0.2" stroke-width="1.5"/>
<path d="M1011.24 543.94L1145.41 641.45" stroke="#234852" stroke-opacity="0.2" stroke-width="1.5"/>
<path d="M1011.24 543.94L1240.79 537.46" stroke="#234852" stroke-opacity="0.2" stroke-width="1.5"/>
<path d="M1130.23 100.42L1115.91 229.83" stroke="#234852" stroke-opacity="0.2" stroke-width="1.5"/>
<path d="M1130.23 100.42L1265.37 99.76" stroke="#234852" stroke-opacity="0.2" stroke-width="1.5"/>
<path d="M1130.23 100.42L1153.72 -90.33" stroke="#234852" stroke-opacity="0.2" stroke-width="1.5"/>
<path d="M1130.23 100.42L1299.96 231.44" stroke="#234852" stroke-opacity="0.2" stroke-width="1.5"/>
<path d="M1130.23 100.42L1248.33 -105.1" stroke="#234852" stroke-opacity="0.2" stroke-width="1.5"/>
<path d="M1115.91 229.83L1150.8 343.08" stroke="#234852" stroke-opacity="0.2" stroke-width="1.5"/>
<path d="M1115.91 229.83L1299.96 231.44" stroke="#234852" stroke-opacity="0.2" stroke-width="1.5"/>
<path d="M1115.91 229.83L1265.37 99.76" stroke="#234852" stroke-opacity="0.2" stroke-width="1.5"/>
<path d="M1115.91 229.83L966.94 385.7" stroke="#234852" stroke-opacity="0.2" stroke-width="1.5"/>
<path d="M1109.38 505.77L1240.79 537.46" stroke="#234852" stroke-opacity="0.2" stroke-width="1.5"/>
<path d="M1145.41 641.45L1109.38 505.77" stroke="#234852" stroke-opacity="0.2" stroke-width="1.5"/>
<path d="M1145.41 641.45L1240.79 537.46" stroke="#234852" stroke-opacity="0.2" stroke-width="1.5"/>
<path d="M1248.33 -105.1L1265.37 99.76" stroke="#234852" stroke-opacity="0.2" stroke-width="1.5"/>
<path d="M1265.37 99.76L1299.96 231.44" stroke="#234852" stroke-opacity="0.2" stroke-width="1.5"/>
<path d="M1265.37 99.76L1415.75 110.65" stroke="#234852" stroke-opacity="0.2" stroke-width="1.5"/>
<path d="M1265.37 99.76L1393.95 241.76" stroke="#234852" stroke-opacity="0.2" stroke-width="1.5"/>
<path d="M1299.96 231.44L1393.95 241.76" stroke="#234852" stroke-opacity="0.2" stroke-width="1.5"/>
<path d="M1299.96 231.44L1287.76 365.32" stroke="#234852" stroke-opacity="0.2" stroke-width="1.5"/>
<path d="M1299.96 231.44L1411.96 347.86" stroke="#234852" stroke-opacity="0.2" stroke-width="1.5"/>
<path d="M1287.76 365.32L1411.96 347.86" stroke="#234852" stroke-opacity="0.2" stroke-width="1.5"/>
<path d="M1287.76 365.32L1150.8 343.08" stroke="#234852" stroke-opacity="0.2" stroke-width="1.5"/>
<path d="M1284.21 687.71L1240.79 537.46" stroke="#234852" stroke-opacity="0.2" stroke-width="1.5"/>
<path d="M1284.21 687.71L1424.49 491.4" stroke="#234852" stroke-opacity="0.2" stroke-width="1.5"/>
<path d="M1391.88 -87.47L1415.75 110.65" stroke="#234852" stroke-opacity="0.2" stroke-width="1.5"/>
<path d="M1391.88 -87.47L1265.37 99.76" stroke="#234852" stroke-opacity="0.2" stroke-width="1.5"/>
<path d="M1415.75 110.65L1393.95 241.76" stroke="#234852" stroke-opacity="0.2" stroke-width="1.5"/>
<path d="M1393.95 241.76L1411.96 347.86" stroke="#234852" stroke-opacity="0.2" stroke-width="1.5"/>
<path d="M1393.95 241.76L1287.76 365.32" stroke="#234852" stroke-opacity="0.2" stroke-width="1.5"/>
<path d="M1411.96 347.86L1424.49 491.4" stroke="#234852" stroke-opacity="0.2" stroke-width="1.5"/>
<path d="M1411.96 347.86L1561.32 365.23" stroke="#234852" stroke-opacity="0.2" stroke-width="1.5"/>
<path d="M1424.49 491.4L1572.06 561.85" stroke="#234852" stroke-opacity="0.2" stroke-width="1.5"/>
<path d="M1424.49 491.4L1393.9 656.97" stroke="#234852" stroke-opacity="0.2" stroke-width="1.5"/>
<path d="M1424.49 491.4L1287.76 365.32" stroke="#234852" stroke-opacity="0.2" stroke-width="1.5"/>
<path d="M1393.9 656.97L1240.79 537.46" stroke="#234852" stroke-opacity="0.2" stroke-width="1.5"/>
<path d="M1592.77 -58.15L1415.75 110.65" stroke="#234852" stroke-opacity="0.2" stroke-width="1.5"/>
<path d="M1609.2 56.98L1415.75 110.65" stroke="#234852" stroke-opacity="0.2" stroke-width="1.5"/>
<path d="M1609.2 56.98L1391.88 -87.47" stroke="#234852" stroke-opacity="0.2" stroke-width="1.5"/>
<path d="M1609.2 56.98L1393.95 241.76" stroke="#234852" stroke-opacity="0.2" stroke-width="1.5"/>
<path d="M1609.2 56.98L1265.37 99.76" stroke="#234852" stroke-opacity="0.2" stroke-width="1.5"/>
<path d="M1561.32 365.23L1424.49 491.4" stroke="#234852" stroke-opacity="0.2" stroke-width="1.5"/>
<path d="M1572.06 561.85L1411.96 347.86" stroke="#234852" stroke-opacity="0.2" stroke-width="1.5"/>
<path d="M111.82 366.64C114.582 366.64 116.82 364.401 116.82 361.64C116.82 358.879 114.582 356.64 111.82 356.64C109.059 356.64 106.82 358.879 106.82 361.64C106.82 364.401 109.059 366.64 111.82 366.64Z" fill="#234852" fill-opacity="0.2"/>
<path d="M78.4902 521.99C81.2517 521.99 83.4902 519.751 83.4902 516.99C83.4902 514.229 81.2517 511.99 78.4902 511.99C75.7288 511.99 73.4902 514.229 73.4902 516.99C73.4902 519.751 75.7288 521.99 78.4902 521.99Z" fill="#234852" fill-opacity="0.2"/>
<path d="M251.97 357.23C254.731 357.23 256.97 354.991 256.97 352.23C256.97 349.469 254.731 347.23 251.97 347.23C249.208 347.23 246.97 349.469 246.97 352.23C246.97 354.991 249.208 357.23 251.97 357.23Z" fill="#234852" fill-opacity="0.2"/>
<path d="M207.391 542.52C210.152 542.52 212.391 540.281 212.391 537.52C212.391 534.759 210.152 532.52 207.391 532.52C204.629 532.52 202.391 534.759 202.391 537.52C202.391 540.281 204.629 542.52 207.391 542.52Z" fill="#234852" fill-opacity="0.2"/>
<path d="M388.21 407.51C390.971 407.51 393.21 405.271 393.21 402.51C393.21 399.749 390.971 397.51 388.21 397.51C385.449 397.51 383.21 399.749 383.21 402.51C383.21 405.271 385.449 407.51 388.21 407.51Z" fill="#234852" fill-opacity="0.2"/>
<path d="M345.47 508.68C348.231 508.68 350.47 506.441 350.47 503.68C350.47 500.919 348.231 498.68 345.47 498.68C342.708 498.68 340.47 500.919 340.47 503.68C340.47 506.441 342.708 508.68 345.47 508.68Z" fill="#234852" fill-opacity="0.2"/>
<path d="M494.04 353.36C496.801 353.36 499.04 351.121 499.04 348.36C499.04 345.599 496.801 343.36 494.04 343.36C491.279 343.36 489.04 345.599 489.04 348.36C489.04 351.121 491.279 353.36 494.04 353.36Z" fill="#234852" fill-opacity="0.2"/>
<path d="M517.66 542.57C520.422 542.57 522.66 540.331 522.66 537.57C522.66 534.809 520.422 532.57 517.66 532.57C514.899 532.57 512.66 534.809 512.66 537.57C512.66 540.331 514.899 542.57 517.66 542.57Z" fill="#234852" fill-opacity="0.2"/>
<path d="M644.47 374.1C647.231 374.1 649.47 371.861 649.47 369.1C649.47 366.339 647.231 364.1 644.47 364.1C641.708 364.1 639.47 366.339 639.47 369.1C639.47 371.861 641.708 374.1 644.47 374.1Z" fill="#234852" fill-opacity="0.2"/>
<path d="M807.4 245.38C810.162 245.38 812.4 243.141 812.4 240.38C812.4 237.619 810.162 235.38 807.4 235.38C804.639 235.38 802.4 237.619 802.4 240.38C802.4 243.141 804.639 245.38 807.4 245.38Z" fill="#234852" fill-opacity="0.2"/>
<path d="M799.271 363.79C802.032 363.79 804.271 361.551 804.271 358.79C804.271 356.029 802.032 353.79 799.271 353.79C796.509 353.79 794.271 356.029 794.271 358.79C794.271 361.551 796.509 363.79 799.271 363.79Z" fill="#234852" fill-opacity="0.2"/>
<path d="M861.59 554.09C864.351 554.09 866.59 551.851 866.59 549.09C866.59 546.329 864.351 544.09 861.59 544.09C858.828 544.09 856.59 546.329 856.59 549.09C856.59 551.851 858.828 554.09 861.59 554.09Z" fill="#234852" fill-opacity="0.2"/>
<path d="M948.13 192.69C950.891 192.69 953.13 190.451 953.13 187.69C953.13 184.929 950.891 182.69 948.13 182.69C945.368 182.69 943.13 184.929 943.13 187.69C943.13 190.451 945.368 192.69 948.13 192.69Z" fill="#234852" fill-opacity="0.2"/>
<path d="M966.94 390.7C969.702 390.7 971.94 388.461 971.94 385.7C971.94 382.939 969.702 380.7 966.94 380.7C964.179 380.7 961.94 382.939 961.94 385.7C961.94 388.461 964.179 390.7 966.94 390.7Z" fill="#234852" fill-opacity="0.2"/>
<path d="M1011.24 548.94C1014 548.94 1016.24 546.701 1016.24 543.94C1016.24 541.179 1014 538.94 1011.24 538.94C1008.48 538.94 1006.24 541.179 1006.24 543.94C1006.24 546.701 1008.48 548.94 1011.24 548.94Z" fill="#234852" fill-opacity="0.2"/>
<path d="M1130.23 105.42C1132.99 105.42 1135.23 103.181 1135.23 100.42C1135.23 97.6586 1132.99 95.42 1130.23 95.42C1127.47 95.42 1125.23 97.6586 1125.23 100.42C1125.23 103.181 1127.47 105.42 1130.23 105.42Z" fill="#234852" fill-opacity="0.2"/>
<path d="M1115.91 234.83C1118.67 234.83 1120.91 232.592 1120.91 229.83C1120.91 227.069 1118.67 224.83 1115.91 224.83C1113.15 224.83 1110.91 227.069 1110.91 229.83C1110.91 232.592 1113.15 234.83 1115.91 234.83Z" fill="#234852" fill-opacity="0.2"/>
<path d="M1150.8 348.08C1153.56 348.08 1155.8 345.841 1155.8 343.08C1155.8 340.319 1153.56 338.08 1150.8 338.08C1148.04 338.08 1145.8 340.319 1145.8 343.08C1145.8 345.841 1148.04 348.08 1150.8 348.08Z" fill="#234852" fill-opacity="0.2"/>
<path d="M1109.38 510.77C1112.14 510.77 1114.38 508.531 1114.38 505.77C1114.38 503.009 1112.14 500.77 1109.38 500.77C1106.62 500.77 1104.38 503.009 1104.38 505.77C1104.38 508.531 1106.62 510.77 1109.38 510.77Z" fill="#234852" fill-opacity="0.2"/>
<path d="M1265.37 104.76C1268.13 104.76 1270.37 102.521 1270.37 99.76C1270.37 96.9986 1268.13 94.76 1265.37 94.76C1262.61 94.76 1260.37 96.9986 1260.37 99.76C1260.37 102.521 1262.61 104.76 1265.37 104.76Z" fill="#234852" fill-opacity="0.2"/>
<path d="M1299.96 236.44C1302.72 236.44 1304.96 234.201 1304.96 231.44C1304.96 228.679 1302.72 226.44 1299.96 226.44C1297.2 226.44 1294.96 228.679 1294.96 231.44C1294.96 234.201 1297.2 236.44 1299.96 236.44Z" fill="#234852" fill-opacity="0.2"/>
<path d="M1287.76 370.32C1290.52 370.32 1292.76 368.081 1292.76 365.32C1292.76 362.559 1290.52 360.32 1287.76 360.32C1285 360.32 1282.76 362.559 1282.76 365.32C1282.76 368.081 1285 370.32 1287.76 370.32Z" fill="#234852" fill-opacity="0.2"/>
<path d="M1240.79 542.46C1243.55 542.46 1245.79 540.221 1245.79 537.46C1245.79 534.699 1243.55 532.46 1240.79 532.46C1238.03 532.46 1235.79 534.699 1235.79 537.46C1235.79 540.221 1238.03 542.46 1240.79 542.46Z" fill="#234852" fill-opacity="0.2"/>
<path d="M1415.75 115.65C1418.51 115.65 1420.75 113.411 1420.75 110.65C1420.75 107.889 1418.51 105.65 1415.75 105.65C1412.99 105.65 1410.75 107.889 1410.75 110.65C1410.75 113.411 1412.99 115.65 1415.75 115.65Z" fill="#234852" fill-opacity="0.2"/>
<path d="M1393.95 246.76C1396.71 246.76 1398.95 244.521 1398.95 241.76C1398.95 238.999 1396.71 236.76 1393.95 236.76C1391.19 236.76 1388.95 238.999 1388.95 241.76C1388.95 244.521 1391.19 246.76 1393.95 246.76Z" fill="#234852" fill-opacity="0.2"/>
<path d="M1411.96 352.86C1414.72 352.86 1416.96 350.621 1416.96 347.86C1416.96 345.099 1414.72 342.86 1411.96 342.86C1409.2 342.86 1406.96 345.099 1406.96 347.86C1406.96 350.621 1409.2 352.86 1411.96 352.86Z" fill="#234852" fill-opacity="0.2"/>
<path d="M1424.49 496.4C1427.25 496.4 1429.49 494.161 1429.49 491.4C1429.49 488.639 1427.25 486.4 1424.49 486.4C1421.73 486.4 1419.49 488.639 1419.49 491.4C1419.49 494.161 1421.73 496.4 1424.49 496.4Z" fill="#234852" fill-opacity="0.2"/>
<path d="M-43.5098 516.23L71.0902 515.37" stroke="#212121" stroke-opacity="0.2" stroke-width="1.5"/>
<path d="M-43.5098 516.23L79.2402 679.69" stroke="#212121" stroke-opacity="0.2" stroke-width="1.5"/>
<path d="M-43.5098 516.23L218.84 556.01" stroke="#212121" stroke-opacity="0.2" stroke-width="1.5"/>
<path d="M-43.5098 516.23L223.33 693.24" stroke="#212121" stroke-opacity="0.2" stroke-width="1.5"/>
<path d="M-43.5098 516.23L366.99 703.72" stroke="#212121" stroke-opacity="0.2" stroke-width="1.5"/>
<path d="M218.84 556.01L223.33 693.24" stroke="#212121" stroke-opacity="0.2" stroke-width="1.5"/>
<path d="M218.84 556.01L71.0898 515.37" stroke="#212121" stroke-opacity="0.2" stroke-width="1.5"/>
<path d="M218.84 556.01L79.2402 679.69" stroke="#212121" stroke-opacity="0.2" stroke-width="1.5"/>
<path d="M218.84 556.01L366.99 703.72" stroke="#212121" stroke-opacity="0.2" stroke-width="1.5"/>
<path d="M497.58 509.4L668.43 488.67" stroke="#212121" stroke-opacity="0.2" stroke-width="1.5"/>
<path d="M497.58 509.4L705.17 404.81" stroke="#212121" stroke-opacity="0.2" stroke-width="1.5"/>
<path d="M497.58 509.4L366.99 703.72" stroke="#212121" stroke-opacity="0.2" stroke-width="1.5"/>
<path d="M670.59 668.91L668.43 488.67" stroke="#212121" stroke-opacity="0.2" stroke-width="1.5"/>
<path d="M670.59 668.91L497.58 509.4" stroke="#212121" stroke-opacity="0.2" stroke-width="1.5"/>
<path d="M670.59 668.91L705.17 404.81" stroke="#212121" stroke-opacity="0.2" stroke-width="1.5"/>
<path d="M670.59 668.91L809.33 401.03" stroke="#212121" stroke-opacity="0.2" stroke-width="1.5"/>
<path d="M1155.24 406.5L1095.49 515.19" stroke="#212121" stroke-opacity="0.2" stroke-width="1.5"/>
<path d="M1155.24 406.5L1269 342.43" stroke="#212121" stroke-opacity="0.2" stroke-width="1.5"/>
<path d="M1155.24 406.5L1110.66 231.8" stroke="#212121" stroke-opacity="0.2" stroke-width="1.5"/>
<path d="M1269.9 258.5L1269 342.43" stroke="#212121" stroke-opacity="0.2" stroke-width="1.5"/>
<path d="M1269.9 258.5L1401.01 246.68" stroke="#212121" stroke-opacity="0.2" stroke-width="1.5"/>
<path d="M1269.9 258.5L1110.66 231.8" stroke="#212121" stroke-opacity="0.2" stroke-width="1.5"/>
<path d="M1269.9 258.5L1155.24 406.5" stroke="#212121" stroke-opacity="0.2" stroke-width="1.5"/>
<path d="M1449.06 -69.1L1400.3 87.72" stroke="#212121" stroke-opacity="0.2" stroke-width="1.5"/>
<path d="M1449.06 -69.1L1307.4 40.56" stroke="#212121" stroke-opacity="0.2" stroke-width="1.5"/>
<path d="M1588.25 69.87L1400.3 87.72" stroke="#212121" stroke-opacity="0.2" stroke-width="1.5"/>
<path d="M-80.7002 681.22L71.0898 515.37" stroke="#212121" stroke-opacity="0.2" stroke-width="1.5"/>
<path d="M-80.7002 681.22L218.84 556.01" stroke="#212121" stroke-opacity="0.2" stroke-width="1.5"/>
<path d="M71.0898 515.37L79.2398 679.69" stroke="#212121" stroke-opacity="0.2" stroke-width="1.5"/>
<path d="M223.33 693.24L71.0898 515.37" stroke="#212121" stroke-opacity="0.2" stroke-width="1.5"/>
<path d="M705.17 404.81L668.43 488.67" stroke="#212121" stroke-opacity="0.2" stroke-width="1.5"/>
<path d="M705.17 404.81L809.33 401.03" stroke="#212121" stroke-opacity="0.2" stroke-width="1.5"/>
<path d="M705.17 404.81L940.37 349.52" stroke="#212121" stroke-opacity="0.2" stroke-width="1.5"/>
<path d="M705.17 404.81L990.53 557.34" stroke="#212121" stroke-opacity="0.2" stroke-width="1.5"/>
<path d="M809.33 401.03L940.37 349.52" stroke="#212121" stroke-opacity="0.2" stroke-width="1.5"/>
<path d="M809.33 401.03L668.43 488.67" stroke="#212121" stroke-opacity="0.2" stroke-width="1.5"/>
<path d="M940.37 349.52L1110.66 231.8" stroke="#212121" stroke-opacity="0.2" stroke-width="1.5"/>
<path d="M940.37 349.52L990.53 557.34" stroke="#212121" stroke-opacity="0.2" stroke-width="1.5"/>
<path d="M940.37 349.52L1155.24 406.5" stroke="#212121" stroke-opacity="0.2" stroke-width="1.5"/>
<path d="M990.53 557.34L988.88 645.72" stroke="#212121" stroke-opacity="0.2" stroke-width="1.5"/>
<path d="M990.53 557.34L1095.49 515.19" stroke="#212121" stroke-opacity="0.2" stroke-width="1.5"/>
<path d="M988.88 645.72L1095.49 515.19" stroke="#212121" stroke-opacity="0.2" stroke-width="1.5"/>
<path d="M1110.66 231.8L1269 342.43" stroke="#212121" stroke-opacity="0.2" stroke-width="1.5"/>
<path d="M1110.66 231.8L1307.4 40.5601" stroke="#212121" stroke-opacity="0.2" stroke-width="1.5"/>
<path d="M1110.66 231.8L1095.49 515.19" stroke="#212121" stroke-opacity="0.2" stroke-width="1.5"/>
<path d="M1095.49 515.19L1092.71 646.96" stroke="#212121" stroke-opacity="0.2" stroke-width="1.5"/>
<path d="M1092.71 646.96L990.53 557.34" stroke="#212121" stroke-opacity="0.2" stroke-width="1.5"/>
<path d="M1251.43 -37.7L1307.4 40.5601" stroke="#212121" stroke-opacity="0.2" stroke-width="1.5"/>
<path d="M1251.43 -37.7L1400.3 87.72" stroke="#212121" stroke-opacity="0.2" stroke-width="1.5"/>
<path d="M1251.43 -37.7L1269.9 258.5" stroke="#212121" stroke-opacity="0.2" stroke-width="1.5"/>
<path d="M1251.43 -37.7L1110.66 231.8" stroke="#212121" stroke-opacity="0.2" stroke-width="1.5"/>
<path d="M1307.4 40.5601L1400.3 87.7201" stroke="#212121" stroke-opacity="0.2" stroke-width="1.5"/>
<path d="M1307.4 40.5601L1269.9 258.5" stroke="#212121" stroke-opacity="0.2" stroke-width="1.5"/>
<path d="M1307.4 40.5601L1401.01 246.68" stroke="#212121" stroke-opacity="0.2" stroke-width="1.5"/>
<path d="M1307.4 40.56L1549.44 -62.33" stroke="#212121" stroke-opacity="0.2" stroke-width="1.5"/>
<path d="M1269 342.43L1401.01 246.68" stroke="#212121" stroke-opacity="0.2" stroke-width="1.5"/>
<path d="M1269 342.43L1456.16 351.06" stroke="#212121" stroke-opacity="0.2" stroke-width="1.5"/>
<path d="M1290.9 560.45L1095.49 515.19" stroke="#212121" stroke-opacity="0.2" stroke-width="1.5"/>
<path d="M1290.9 560.45L1155.24 406.5" stroke="#212121" stroke-opacity="0.2" stroke-width="1.5"/>
<path d="M1237.76 666.38L1095.49 515.19" stroke="#212121" stroke-opacity="0.2" stroke-width="1.5"/>
<path d="M1400.3 87.72L1401.01 246.68" stroke="#212121" stroke-opacity="0.2" stroke-width="1.5"/>
<path d="M1400.3 87.72L1549.44 -62.33" stroke="#212121" stroke-opacity="0.2" stroke-width="1.5"/>
<path d="M1401.01 246.68L1456.16 351.06" stroke="#212121" stroke-opacity="0.2" stroke-width="1.5"/>
<path d="M1443.28 702.82L1290.9 560.45" stroke="#212121" stroke-opacity="0.2" stroke-width="1.5"/>
<path d="M1606.53 365.49L1401.01 246.68" stroke="#212121" stroke-opacity="0.2" stroke-width="1.5"/>
<path d="M1606.53 365.49L1269 342.43" stroke="#212121" stroke-opacity="0.2" stroke-width="1.5"/>
<path d="M1542.21 704.92L1290.9 560.45" stroke="#212121" stroke-opacity="0.2" stroke-width="1.5"/>
<path d="M218.84 581.01C232.647 581.01 243.84 569.817 243.84 556.01C243.84 542.203 232.647 531.01 218.84 531.01C205.033 531.01 193.84 542.203 193.84 556.01C193.84 569.817 205.033 581.01 218.84 581.01Z" fill="url(#paint0_radial)" fill-opacity="0.2"/>
<path d="M497.58 534.4C511.387 534.4 522.58 523.207 522.58 509.4C522.58 495.593 511.387 484.4 497.58 484.4C483.773 484.4 472.58 495.593 472.58 509.4C472.58 523.207 483.773 534.4 497.58 534.4Z" fill="url(#paint1_radial)" fill-opacity="0.2"/>
<path d="M1155.24 431.5C1169.05 431.5 1180.24 420.307 1180.24 406.5C1180.24 392.693 1169.05 381.5 1155.24 381.5C1141.43 381.5 1130.24 392.693 1130.24 406.5C1130.24 420.307 1141.43 431.5 1155.24 431.5Z" fill="url(#paint2_radial)" fill-opacity="0.2"/>
<path d="M1269.9 283.5C1283.71 283.5 1294.9 272.307 1294.9 258.5C1294.9 244.693 1283.71 233.5 1269.9 233.5C1256.09 233.5 1244.9 244.693 1244.9 258.5C1244.9 272.307 1256.09 283.5 1269.9 283.5Z" fill="url(#paint3_radial)" fill-opacity="0.2"/>
<path d="M71.0898 520.37C73.8513 520.37 76.0898 518.131 76.0898 515.37C76.0898 512.609 73.8513 510.37 71.0898 510.37C68.3284 510.37 66.0898 512.609 66.0898 515.37C66.0898 518.131 68.3284 520.37 71.0898 520.37Z" fill="#4CA484" fill-opacity="0.2"/>
<path d="M705.17 409.81C707.931 409.81 710.17 407.571 710.17 404.81C710.17 402.049 707.931 399.81 705.17 399.81C702.408 399.81 700.17 402.049 700.17 404.81C700.17 407.571 702.408 409.81 705.17 409.81Z" fill="#4CA484" fill-opacity="0.2"/>
<path d="M668.43 493.67C671.191 493.67 673.43 491.431 673.43 488.67C673.43 485.909 671.191 483.67 668.43 483.67C665.668 483.67 663.43 485.909 663.43 488.67C663.43 491.431 665.668 493.67 668.43 493.67Z" fill="#4CA484" fill-opacity="0.2"/>
<path d="M809.33 406.03C812.092 406.03 814.33 403.791 814.33 401.03C814.33 398.269 812.092 396.03 809.33 396.03C806.569 396.03 804.33 398.269 804.33 401.03C804.33 403.791 806.569 406.03 809.33 406.03Z" fill="#4CA484" fill-opacity="0.2"/>
<path d="M940.37 354.52C943.132 354.52 945.37 352.281 945.37 349.52C945.37 346.759 943.132 344.52 940.37 344.52C937.609 344.52 935.37 346.759 935.37 349.52C935.37 352.281 937.609 354.52 940.37 354.52Z" fill="#4CA484" fill-opacity="0.2"/>
<path d="M990.53 562.34C993.292 562.34 995.53 560.101 995.53 557.34C995.53 554.579 993.292 552.34 990.53 552.34C987.769 552.34 985.53 554.579 985.53 557.34C985.53 560.101 987.769 562.34 990.53 562.34Z" fill="#4CA484" fill-opacity="0.2"/>
<path d="M1110.66 236.8C1113.42 236.8 1115.66 234.561 1115.66 231.8C1115.66 229.039 1113.42 226.8 1110.66 226.8C1107.9 226.8 1105.66 229.039 1105.66 231.8C1105.66 234.561 1107.9 236.8 1110.66 236.8Z" fill="#4CA484" fill-opacity="0.2"/>
<path d="M1095.49 520.19C1098.25 520.19 1100.49 517.951 1100.49 515.19C1100.49 512.429 1098.25 510.19 1095.49 510.19C1092.73 510.19 1090.49 512.429 1090.49 515.19C1090.49 517.951 1092.73 520.19 1095.49 520.19Z" fill="#4CA484" fill-opacity="0.2"/>
<path d="M1307.4 45.5601C1310.16 45.5601 1312.4 43.3215 1312.4 40.5601C1312.4 37.7986 1310.16 35.5601 1307.4 35.5601C1304.64 35.5601 1302.4 37.7986 1302.4 40.5601C1302.4 43.3215 1304.64 45.5601 1307.4 45.5601Z" fill="#4CA484" fill-opacity="0.2"/>
<path d="M1269 347.43C1271.76 347.43 1274 345.191 1274 342.43C1274 339.669 1271.76 337.43 1269 337.43C1266.24 337.43 1264 339.669 1264 342.43C1264 345.191 1266.24 347.43 1269 347.43Z" fill="#4CA484" fill-opacity="0.2"/>
<path d="M1290.9 565.45C1293.66 565.45 1295.9 563.211 1295.9 560.45C1295.9 557.689 1293.66 555.45 1290.9 555.45C1288.14 555.45 1285.9 557.689 1285.9 560.45C1285.9 563.211 1288.14 565.45 1290.9 565.45Z" fill="#4CA484" fill-opacity="0.2"/>
<path d="M1400.3 92.72C1403.06 92.72 1405.3 90.4814 1405.3 87.72C1405.3 84.9585 1403.06 82.72 1400.3 82.72C1397.54 82.72 1395.3 84.9585 1395.3 87.72C1395.3 90.4814 1397.54 92.72 1400.3 92.72Z" fill="#4CA484" fill-opacity="0.2"/>
<path d="M1401.01 251.68C1403.77 251.68 1406.01 249.441 1406.01 246.68C1406.01 243.919 1403.77 241.68 1401.01 241.68C1398.25 241.68 1396.01 243.919 1396.01 246.68C1396.01 249.441 1398.25 251.68 1401.01 251.68Z" fill="#4CA484" fill-opacity="0.2"/>
</g>
<defs>
<radialGradient id="paint0_radial" cx="0" cy="0" r="1" gradientUnits="userSpaceOnUse" gradientTransform="translate(218.84 556.01) scale(25)">
<stop offset="0.1" stop-color="white"/>
<stop offset="0.2" stop-color="#4CA484"/>
<stop offset="1" stop-color="#4CA484" stop-opacity="0"/>
</radialGradient>
<radialGradient id="paint1_radial" cx="0" cy="0" r="1" gradientUnits="userSpaceOnUse" gradientTransform="translate(497.58 509.4) scale(25)">
<stop offset="0.1" stop-color="white"/>
<stop offset="0.2" stop-color="#4CA484"/>
<stop offset="1" stop-color="#4CA484" stop-opacity="0"/>
</radialGradient>
<radialGradient id="paint2_radial" cx="0" cy="0" r="1" gradientUnits="userSpaceOnUse" gradientTransform="translate(1155.24 406.5) scale(25)">
<stop offset="0.1" stop-color="white"/>
<stop offset="0.2" stop-color="#4CA484"/>
<stop offset="1" stop-color="#4CA484" stop-opacity="0"/>
</radialGradient>
<radialGradient id="paint3_radial" cx="0" cy="0" r="1" gradientUnits="userSpaceOnUse" gradientTransform="translate(1269.9 258.5) scale(25)">
<stop offset="0.1" stop-color="white"/>
<stop offset="0.2" stop-color="#4CA484"/>
<stop offset="1" stop-color="#4CA484" stop-opacity="0"/>
</radialGradient>
<clipPath id="clip0">
<rect width="1440" height="560" fill="white"/>
</clipPath>
</defs>
</svg>
