<svg width="1115" height="405" viewBox="0 0 1115 405" fill="none" xmlns="http://www.w3.org/2000/svg">
<g clip-path="url(#clip0)">
<path d="M571.561 477.63C708.021 443.65 725.951 99.35 962.82 73.49C1199.69 47.63 1250.21 -64.42 1354.08 -66.51" stroke="#234852" stroke-opacity="0.1" stroke-width="2"/>
<path d="M-77.21 434.86C114.1 428.71 272.1 135.47 627.28 135.09C982.46 134.71 1153.21 252.29 1331.77 252.69" stroke="#234852" stroke-opacity="0.1" stroke-width="2"/>
<path d="M219.41 441.71C363.52 419.53 443.9 74.1799 672.08 73.9499C900.25 73.7199 995.49 317.65 1124.74 325.95" stroke="#234852" stroke-opacity="0.1" stroke-width="2"/>
<path d="M492.39 474.47C629.46 434.74 667.29 54.09 872.17 48.27C1077.06 42.45 1152.58 164.53 1251.96 165.87" stroke="#234852" stroke-opacity="0.1" stroke-width="2"/>
<path d="M57.71 497.42C228.37 472.76 320.17 72.2599 599.24 70.2299C878.32 68.1999 999.84 225.46 1140.78 227.03" stroke="#234852" stroke-opacity="0.1" stroke-width="2"/>
</g>
<defs>
<clipPath id="clip0">
<rect width="1115" height="405" fill="white"/>
</clipPath>
</defs>
</svg>
