<svg width="209" height="114" viewBox="0 0 209 114" fill="none" xmlns="http://www.w3.org/2000/svg">
<path d="M13.1546 6.07726C13.1546 9.42505 10.4401 12.1545 7.07728 12.1545C3.71442 12.1545 1 9.44013 1 6.07726C1 2.72948 3.71442 -1.22995e-05 7.07728 -1.22995e-05C10.4401 -1.22995e-05 13.1546 2.7144 13.1546 6.07726Z" fill="#B6DBD3"/>
<path d="M45.7278 6.07726C45.7278 9.42505 43.0134 12.1545 39.6505 12.1545C36.3027 12.1545 33.5732 9.44013 33.5732 6.07726C33.5732 2.72948 36.2877 -1.22995e-05 39.6505 -1.22995e-05C42.9983 -1.22995e-05 45.7278 2.7144 45.7278 6.07726Z" fill="#B6DBD3"/>
<path d="M78.301 6.07726C78.301 9.42505 75.5866 12.1545 72.2238 12.1545C68.8609 12.1545 66.1465 9.44013 66.1465 6.07726C66.1465 2.72948 68.8609 -1.22995e-05 72.2238 -1.22995e-05C75.5866 -1.22995e-05 78.301 2.7144 78.301 6.07726Z" fill="#B6DBD3"/>
<path d="M110.859 6.07726C110.859 9.42505 108.144 12.1545 104.781 12.1545C101.419 12.1545 98.7041 9.44013 98.7041 6.07726C98.7041 2.72948 101.419 -1.22995e-05 104.781 -1.22995e-05C108.144 -1.22995e-05 110.859 2.7144 110.859 6.07726Z" fill="#1D262D" fill-opacity="0.8"/>
<path d="M143.432 6.07726C143.432 9.42505 140.718 12.1545 137.355 12.1545C134.007 12.1545 131.277 9.44013 131.277 6.07726C131.277 2.72948 133.992 -1.22995e-05 137.355 -1.22995e-05C140.718 -1.22995e-05 143.432 2.7144 143.432 6.07726Z" fill="#B6DBD3"/>
<path d="M176.004 6.07726C176.004 9.42505 173.29 12.1545 169.927 12.1545C166.564 12.1545 163.85 9.44013 163.85 6.07726C163.85 2.72948 166.564 -1.22995e-05 169.927 -1.22995e-05C173.29 -1.22995e-05 176.004 2.7144 176.004 6.07726Z" fill="#B6DBD3"/>
<path d="M208.577 6.07726C208.577 9.42505 205.863 12.1545 202.5 12.1545C199.137 12.1545 196.423 9.44013 196.423 6.07726C196.423 2.72948 199.137 -1.22995e-05 202.5 -1.22995e-05C205.863 -1.22995e-05 208.577 2.7144 208.577 6.07726Z" fill="#1D262D" fill-opacity="0.8"/>
<path d="M13.1546 31.2318C13.1546 27.8754 10.4337 25.1545 7.07728 25.1545C3.72089 25.1545 1 27.8754 1 31.2318C1 34.5882 3.72089 37.3091 7.07728 37.3091C10.4337 37.3091 13.1546 34.5882 13.1546 31.2318Z" fill="#B6DBD3"/>
<path d="M45.7278 31.2318C45.7278 34.5796 43.0134 37.3091 39.6505 37.3091C36.3027 37.3091 33.5732 34.5947 33.5732 31.2318C33.5732 27.884 36.2877 25.1545 39.6505 25.1545C42.9983 25.1545 45.7278 27.884 45.7278 31.2318Z" stroke="#B6DBD3" stroke-miterlimit="10"/>
<path d="M78.301 31.2318C78.301 27.8754 75.5801 25.1545 72.2238 25.1545C68.8674 25.1545 66.1465 27.8754 66.1465 31.2318C66.1465 34.5882 68.8674 37.3091 72.2238 37.3091C75.5801 37.3091 78.301 34.5882 78.301 31.2318Z" fill="#B6DBD3"/>
<path d="M110.873 31.2318C110.873 27.8754 108.152 25.1545 104.796 25.1545C101.44 25.1545 98.7188 27.8754 98.7188 31.2318C98.7188 34.5882 101.44 37.3091 104.796 37.3091C108.152 37.3091 110.873 34.5882 110.873 31.2318Z" fill="#B6DBD3"/>
<path d="M143.432 31.2318C143.432 34.5796 140.718 37.3091 137.355 37.3091C134.007 37.3091 131.277 34.5947 131.277 31.2318C131.277 27.884 133.992 25.1545 137.355 25.1545C140.718 25.1545 143.432 27.884 143.432 31.2318Z" fill="#B6DBD3"/>
<path d="M176.02 31.2318C176.02 27.8754 173.299 25.1545 169.943 25.1545C166.586 25.1545 163.865 27.8754 163.865 31.2318C163.865 34.5882 166.586 37.3091 169.943 37.3091C173.299 37.3091 176.02 34.5882 176.02 31.2318Z" stroke="#B6DBD3" stroke-miterlimit="10"/>
<path d="M208.593 31.2318C208.593 27.8754 205.872 25.1545 202.516 25.1545C199.159 25.1545 196.438 27.8754 196.438 31.2318C196.438 34.5882 199.159 37.3091 202.516 37.3091C205.872 37.3091 208.593 34.5882 208.593 31.2318Z" fill="#B6DBD3"/>
<path d="M13.1546 56.3995C13.1546 53.0431 10.4337 50.3223 7.07728 50.3223C3.72089 50.3223 1 53.0431 1 56.3995C1 59.7559 3.72089 62.4768 7.07728 62.4768C10.4337 62.4768 13.1546 59.7559 13.1546 56.3995Z" fill="#B6DBD3"/>
<path d="M45.7278 56.3995C45.7278 59.7473 43.0134 62.4768 39.6505 62.4768C36.3027 62.4768 33.5732 59.7624 33.5732 56.3995C33.5732 53.0367 36.2877 50.3223 39.6505 50.3223C42.9983 50.3223 45.7278 53.0367 45.7278 56.3995Z" fill="#B6DBD3"/>
<path d="M78.301 56.3995C78.301 53.0431 75.5801 50.3223 72.2238 50.3223C68.8674 50.3223 66.1465 53.0431 66.1465 56.3995C66.1465 59.7559 68.8674 62.4768 72.2238 62.4768C75.5801 62.4768 78.301 59.7559 78.301 56.3995Z" fill="#B6DBD3"/>
<path d="M110.873 56.3995C110.873 53.0431 108.152 50.3223 104.796 50.3223C101.44 50.3223 98.7188 53.0431 98.7188 56.3995C98.7188 59.7559 101.44 62.4768 104.796 62.4768C108.152 62.4768 110.873 59.7559 110.873 56.3995Z" fill="#B6DBD3"/>
<path d="M143.432 56.3995C143.432 59.7473 140.718 62.4768 137.355 62.4768C134.007 62.4768 131.277 59.7624 131.277 56.3995C131.277 53.0367 133.992 50.3223 137.355 50.3223C140.718 50.3223 143.432 53.0367 143.432 56.3995Z" fill="#1D262D" fill-opacity="0.8"/>
<path d="M176.02 56.3995C176.02 53.0431 173.299 50.3223 169.943 50.3223C166.586 50.3223 163.865 53.0431 163.865 56.3995C163.865 59.7559 166.586 62.4768 169.943 62.4768C173.299 62.4768 176.02 59.7559 176.02 56.3995Z" fill="#B6DBD3"/>
<path d="M208.593 56.3995C208.593 53.0431 205.872 50.3223 202.516 50.3223C199.159 50.3223 196.438 53.0431 196.438 56.3995C196.438 59.7559 199.159 62.4768 202.516 62.4768C205.872 62.4768 208.593 59.7559 208.593 56.3995Z" fill="#B6DBD3"/>
<path d="M13.1546 81.5685C13.1546 78.2121 10.4337 75.4912 7.07728 75.4912C3.72089 75.4912 1 78.2121 1 81.5685C1 84.9249 3.72089 87.6458 7.07728 87.6458C10.4337 87.6458 13.1546 84.9249 13.1546 81.5685Z" fill="#B6DBD3"/>
<path d="M45.7278 81.5685C45.7278 84.9163 43.0134 87.6458 39.6505 87.6458C36.3027 87.6458 33.5732 84.9313 33.5732 81.5685C33.5732 78.2056 36.2877 75.4912 39.6505 75.4912C42.9983 75.4912 45.7278 78.2056 45.7278 81.5685Z" fill="#1D262D" fill-opacity="0.8"/>
<path d="M78.301 81.5685C78.301 78.2121 75.5801 75.4912 72.2238 75.4912C68.8674 75.4912 66.1465 78.2121 66.1465 81.5685C66.1465 84.9249 68.8674 87.6458 72.2238 87.6458C75.5801 87.6458 78.301 84.9249 78.301 81.5685Z" fill="#B6DBD3"/>
<path d="M110.873 81.5685C110.873 78.2121 108.152 75.4912 104.796 75.4912C101.44 75.4912 98.7188 78.2121 98.7188 81.5685C98.7188 84.9249 101.44 87.6458 104.796 87.6458C108.152 87.6458 110.873 84.9249 110.873 81.5685Z" stroke="#B6DBD3" stroke-miterlimit="10"/>
<path d="M143.432 81.5685C143.432 84.9163 140.718 87.6458 137.355 87.6458C134.007 87.6458 131.277 84.9313 131.277 81.5685C131.277 78.2056 133.992 75.4912 137.355 75.4912C140.718 75.4912 143.432 78.2056 143.432 81.5685Z" fill="#B6DBD3"/>
<path d="M176.02 81.5685C176.02 78.2121 173.299 75.4912 169.943 75.4912C166.586 75.4912 163.865 78.2121 163.865 81.5685C163.865 84.9249 166.586 87.6458 169.943 87.6458C173.299 87.6458 176.02 84.9249 176.02 81.5685Z" fill="#B6DBD3"/>
<path d="M208.593 81.5685C208.593 78.2121 205.872 75.4912 202.516 75.4912C199.159 75.4912 196.438 78.2121 196.438 81.5685C196.438 84.9249 199.159 87.6458 202.516 87.6458C205.872 87.6458 208.593 84.9249 208.593 81.5685Z" fill="#B6DBD3"/>
<path d="M13.1546 106.722C13.1546 103.365 10.4337 100.645 7.07728 100.645C3.72089 100.645 1 103.365 1 106.722C1 110.078 3.72089 112.799 7.07728 112.799C10.4337 112.799 13.1546 110.078 13.1546 106.722Z" stroke="#B6DBD3" stroke-miterlimit="10"/>
<path d="M45.7278 106.722C45.7278 110.07 43.0134 112.799 39.6505 112.799C36.3027 112.799 33.5732 110.085 33.5732 106.722C33.5732 103.374 36.2877 100.645 39.6505 100.645C42.9983 100.645 45.7278 103.374 45.7278 106.722Z" fill="#B6DBD3"/>
<path d="M78.301 106.722C78.301 103.365 75.5801 100.645 72.2238 100.645C68.8674 100.645 66.1465 103.365 66.1465 106.722C66.1465 110.078 68.8674 112.799 72.2238 112.799C75.5801 112.799 78.301 110.078 78.301 106.722Z" fill="#B6DBD3"/>
<path d="M110.873 106.722C110.873 103.365 108.152 100.645 104.796 100.645C101.44 100.645 98.7188 103.365 98.7188 106.722C98.7188 110.078 101.44 112.799 104.796 112.799C108.152 112.799 110.873 110.078 110.873 106.722Z" fill="#B6DBD3"/>
<path d="M143.432 106.722C143.432 110.07 140.718 112.799 137.355 112.799C134.007 112.799 131.277 110.085 131.277 106.722C131.277 103.374 133.992 100.645 137.355 100.645C140.718 100.645 143.432 103.374 143.432 106.722Z" fill="#B6DBD3"/>
<path d="M176.02 106.722C176.02 103.365 173.299 100.645 169.943 100.645C166.586 100.645 163.865 103.365 163.865 106.722C163.865 110.078 166.586 112.799 169.943 112.799C173.299 112.799 176.02 110.078 176.02 106.722Z" fill="#B6DBD3"/>
<path d="M208.593 106.722C208.593 103.365 205.872 100.645 202.516 100.645C199.159 100.645 196.438 103.365 196.438 106.722C196.438 110.078 199.159 112.799 202.516 112.799C205.872 112.799 208.593 110.078 208.593 106.722Z" fill="#B6DBD3"/>
</svg>
