<svg width="42" height="42" viewBox="0 0 42 42" fill="none" xmlns="http://www.w3.org/2000/svg">
<path fill-rule="evenodd" clip-rule="evenodd" d="M21 0C9.40202 0 0 9.40202 0 21C0 32.598 9.40202 42 21 42C32.598 42 42 32.598 42 21C42 9.40202 32.598 0 21 0ZM16.3828 9.86764C17.5775 9.81328 17.9593 9.79998 21.001 9.79998H20.9975C24.0402 9.79998 24.4206 9.81328 25.6152 9.86764C26.8076 9.92224 27.6219 10.111 28.3359 10.388C29.0733 10.6738 29.6963 11.0565 30.3193 11.6795C30.9423 12.302 31.325 12.9269 31.612 13.6635C31.8873 14.3757 32.0763 15.1896 32.1323 16.3819C32.186 17.5766 32.2 17.9583 32.2 21.0001C32.2 24.0419 32.186 24.4227 32.1323 25.6173C32.0763 26.8092 31.8873 27.6233 31.612 28.3357C31.325 29.0721 30.9423 29.697 30.3193 30.3195C29.697 30.9425 29.073 31.3261 28.3366 31.6122C27.624 31.8892 26.8092 32.0779 25.6169 32.1325C24.4222 32.1869 24.0416 32.2002 20.9996 32.2002C17.9581 32.2002 17.5766 32.1869 16.3819 32.1325C15.1898 32.0779 14.3757 31.8892 13.6631 31.6122C12.9269 31.3261 12.302 30.9425 11.6797 30.3195C11.057 29.697 10.6743 29.0721 10.388 28.3355C10.1112 27.6233 9.92248 26.8095 9.86764 25.6171C9.81351 24.4224 9.79998 24.0419 9.79998 21.0001C9.79998 17.9583 9.81398 17.5764 9.86741 16.3817C9.92108 15.1898 10.1101 14.3757 10.3877 13.6633C10.6748 12.9269 11.0574 12.302 11.6804 11.6795C12.303 11.0567 12.9278 10.6741 13.6645 10.388C14.3766 10.111 15.1905 9.92224 16.3828 9.86764Z" fill="#336975"/>
<path fill-rule="evenodd" clip-rule="evenodd" d="M19.9964 11.8184C20.1914 11.818 20.4013 11.8181 20.6278 11.8182L21.0011 11.8184C23.9915 11.8184 24.346 11.8291 25.5269 11.8828C26.6189 11.9327 27.2116 12.1152 27.6064 12.2685C28.129 12.4715 28.5017 12.7141 28.8934 13.1061C29.2854 13.4981 29.5281 13.8715 29.7316 14.3941C29.8849 14.7885 30.0676 15.3812 30.1173 16.4732C30.171 17.6538 30.1826 18.0085 30.1826 20.9975C30.1826 23.9866 30.171 24.3412 30.1173 25.5219C30.0674 26.6139 29.8849 27.2066 29.7316 27.6009C29.5286 28.1236 29.2854 28.4958 28.8934 28.8876C28.5014 29.2796 28.1293 29.5222 27.6064 29.7252C27.212 29.8792 26.6189 30.0612 25.5269 30.1112C24.3462 30.1648 23.9915 30.1765 21.0011 30.1765C18.0104 30.1765 17.656 30.1648 16.4753 30.1112C15.3833 30.0608 14.7906 29.8783 14.3956 29.725C13.8729 29.522 13.4996 29.2793 13.1076 28.8873C12.7156 28.4953 12.4729 28.1229 12.2694 27.6C12.1161 27.2057 11.9334 26.613 11.8837 25.521C11.8301 24.3403 11.8193 23.9856 11.8193 20.9947C11.8193 18.0038 11.8301 17.651 11.8837 16.4704C11.9337 15.3784 12.1161 14.7857 12.2694 14.3909C12.4724 13.8682 12.7156 13.4949 13.1076 13.1029C13.4996 12.7109 13.8729 12.4682 14.3956 12.2647C14.7904 12.1107 15.3833 11.9287 16.4753 11.8786C17.5085 11.8319 17.9089 11.8179 19.9964 11.8156V11.8184ZM26.9796 13.678C26.2376 13.678 25.6356 14.2794 25.6356 15.0216C25.6356 15.7636 26.2376 16.3656 26.9796 16.3656C27.7216 16.3656 28.3236 15.7636 28.3236 15.0216C28.3236 14.2796 27.7216 13.6776 26.9796 13.6776V13.678ZM15.2494 21.0001C15.2494 17.8238 17.8246 15.2485 21.0009 15.2484C24.1773 15.2484 26.7519 17.8237 26.7519 21.0001C26.7519 24.1765 24.1775 26.7507 21.0011 26.7507C17.8247 26.7507 15.2494 24.1765 15.2494 21.0001Z" fill="#336975"/>
<path d="M21.001 17.2667C23.0627 17.2667 24.7343 18.9381 24.7343 21.0001C24.7343 23.0619 23.0627 24.7335 21.001 24.7335C18.939 24.7335 17.2676 23.0619 17.2676 21.0001C17.2676 18.9381 18.939 17.2667 21.001 17.2667Z" fill="#336975"/>
</svg>
