<svg width="42" height="42" viewBox="0 0 42 42" fill="none" xmlns="http://www.w3.org/2000/svg">
<path fill-rule="evenodd" clip-rule="evenodd" d="M21 42C9.40202 42 0 32.598 0 21C0 9.40202 9.40202 0 21 0C32.598 0 42 9.40202 42 21C42 32.598 32.598 42 21 42ZM21.2926 19.8214C23.0121 19.8214 31.3726 15.12 31.3726 15.12L31.3861 14.28C31.3861 13.3527 30.6334 12.6 29.7035 12.6H12.8817C11.9527 12.6 11.2 13.3527 11.2 14.28V15.0285C11.2 15.0285 19.6521 19.8214 21.2926 19.8214ZM11.2135 17.64C11.2126 17.64 19.6521 22.1314 21.2926 22.1314C23.0911 22.1314 31.3726 17.64 31.3726 17.64L31.3861 27.72C31.3861 28.6473 30.6334 29.4 29.7035 29.4H12.8817C11.9535 29.4 11.2 28.6473 11.2 27.72L11.2135 17.64Z" fill="#336975"/>
</svg>
