<svg width="636" height="548" viewBox="0 0 636 548" fill="none" xmlns="http://www.w3.org/2000/svg">
<g clip-path="url(#clip0)">
<path d="M564.159 173.93C567.4 140.393 575.153 108.642 561.446 76.3912C536.289 17.2072 460.404 -14.2147 401.438 13.8191C371.283 28.1148 345.498 49.0293 312.289 56.7061C222.654 77.4205 84.3046 -32.942 35.5183 95.5474C18.7707 139.635 25.524 197.733 55.8067 234.587C65.5297 246.409 77.4086 256.702 84.6045 270.226C104.293 307.237 76.4234 347.909 63.8592 382.433C34.0191 464.018 146.526 509.164 207.591 517.484C308.534 531.322 391.8 415.527 492.186 462.703C562.146 495.583 623.539 415.527 610.689 335.471C602.28 283.063 559.704 232.9 563.688 179.491C563.83 177.647 563.988 175.803 564.159 173.93Z" fill="#336975" fill-opacity="0.35"/>
<path opacity="0.7" d="M564.159 173.93C567.4 140.393 575.153 108.642 561.446 76.3912C536.289 17.2072 460.404 -14.2147 401.438 13.8191C371.283 28.1148 345.498 49.0293 312.289 56.7061C222.654 77.4205 84.3047 -32.942 35.5183 95.5474C18.7707 139.635 25.524 197.733 55.8067 234.587C65.5297 246.409 77.4086 256.702 84.6045 270.226C104.293 307.237 76.4235 347.909 63.8592 382.433C34.0191 464.018 146.526 509.164 207.591 517.484C308.534 531.322 391.8 415.527 492.186 462.703C562.146 495.583 623.539 415.527 610.69 335.471C602.28 283.063 559.704 232.9 563.688 179.491C563.831 177.647 563.988 175.803 564.159 173.93Z" fill="#336975" fill-opacity="0.35"/>
<path d="M83.5201 195.746C110.748 195.746 132.821 173.645 132.821 146.383C132.821 119.12 110.748 97.0198 83.5201 97.0198C56.2923 97.0198 34.2197 119.12 34.2197 146.383C34.2197 173.645 56.2923 195.746 83.5201 195.746Z" fill="white" stroke="#2E353A" stroke-linecap="round" stroke-linejoin="round"/>
<path d="M79.8502 190.842C107.078 190.842 129.151 168.742 129.151 141.479C129.151 114.217 107.078 92.1165 79.8502 92.1165C52.6223 92.1165 30.5498 114.217 30.5498 141.479C30.5498 168.742 52.6223 190.842 79.8502 190.842Z" fill="white" stroke="#2E353A" stroke-linecap="round" stroke-linejoin="round"/>
<path d="M79.8505 185.939C104.374 185.939 124.254 166.034 124.254 141.479C124.254 116.925 104.374 97.0198 79.8505 97.0198C55.3273 97.0198 35.4473 116.925 35.4473 141.479C35.4473 166.034 55.3273 185.939 79.8505 185.939Z" fill="#2E353A" stroke="#2E353A" stroke-linecap="round" stroke-linejoin="round"/>
<path d="M74.6392 108.056C74.6392 108.056 69.7421 95.7902 61.1755 87.2128C52.609 78.6355 17.6861 73.103 17.6861 73.103C23.3253 78.5492 28.4535 84.5021 33.0059 90.8868C40.9585 101.923 67.272 127.069 67.272 127.069C67.272 127.069 54.4222 116.033 42.7717 114.803C31.1213 113.574 1.73806 119.707 -0.0609124 119.707C-1.85988 119.707 10.9614 124.61 20.1561 128.899C29.3508 133.188 64.8591 136.876 64.8591 136.876C64.8591 136.876 49.5536 141.165 39.1595 144.853C28.7655 148.541 18.914 175.503 18.914 175.503C18.914 175.503 32.392 163.237 44.0282 160.178C55.6644 157.119 72.1978 151.6 72.1978 151.6C72.1978 151.6 61.7894 163.251 59.348 171.228C56.9065 179.205 58.7341 197.59 58.7341 197.59C58.7341 197.59 64.2452 180.435 70.9842 173.673C77.7232 166.911 85.0476 155.346 85.0476 155.346C88.4398 160.882 91.5098 166.61 94.2423 172.501C99.1395 182.922 102.195 198.233 102.195 198.233C102.195 198.233 110.162 181.078 109.548 172.501C108.934 163.923 99.7535 148.584 99.7535 148.584C99.7535 148.584 105.879 144.295 115.059 147.969C124.239 151.643 140.173 166.983 140.173 166.983C140.173 166.983 136.49 146.74 130.365 138.777C124.239 130.815 97.9117 128.341 97.9117 128.341C97.9117 128.341 112.618 119.764 121.798 117.92C130.978 116.076 143.214 120.379 143.214 120.379C143.214 120.379 129.137 100.751 118.114 99.5214C107.092 98.292 90.5587 115.418 90.5587 115.418L95.4702 90.8868C96.6838 84.754 94.2423 69.4434 94.2423 69.4434C94.2423 69.4434 87.5033 73.1173 79.5364 84.7683C77.2049 88.1241 75.57 91.9145 74.7288 95.9147C73.8876 99.915 73.8571 104.044 74.6392 108.056Z" fill="#0B3E4C"/>
<path opacity="0.5" d="M74.6392 108.056C74.6392 108.056 69.7421 95.7902 61.1755 87.2128C52.609 78.6355 17.6861 73.103 17.6861 73.103C23.3253 78.5492 28.4535 84.5021 33.0059 90.8868C40.9585 101.923 67.272 127.069 67.272 127.069C67.272 127.069 54.4222 116.033 42.7717 114.803C31.1213 113.574 1.73806 119.707 -0.0609124 119.707C-1.85988 119.707 10.9614 124.61 20.1561 128.899C29.3508 133.188 64.8591 136.876 64.8591 136.876C64.8591 136.876 49.5536 141.165 39.1595 144.853C28.7655 148.541 18.914 175.503 18.914 175.503C18.914 175.503 32.392 163.237 44.0282 160.178C55.6644 157.119 72.1978 151.6 72.1978 151.6C72.1978 151.6 61.7894 163.251 59.348 171.228C56.9065 179.205 58.7341 197.59 58.7341 197.59C58.7341 197.59 64.2452 180.435 70.9842 173.673C77.7232 166.911 85.0476 155.346 85.0476 155.346C88.4398 160.882 91.5098 166.61 94.2423 172.501C99.1395 182.922 102.195 198.233 102.195 198.233C102.195 198.233 110.162 181.078 109.548 172.501C108.934 163.923 99.7535 148.584 99.7535 148.584C99.7535 148.584 105.879 144.295 115.059 147.969C124.239 151.643 140.173 166.983 140.173 166.983C140.173 166.983 136.49 146.74 130.365 138.777C124.239 130.815 97.9117 128.341 97.9117 128.341C97.9117 128.341 112.618 119.764 121.798 117.92C130.978 116.076 143.214 120.379 143.214 120.379C143.214 120.379 129.137 100.751 118.114 99.5214C107.092 98.292 90.5587 115.418 90.5587 115.418L95.4702 90.8868C96.6838 84.754 94.2423 69.4434 94.2423 69.4434C94.2423 69.4434 87.5033 73.1173 79.5364 84.7683C77.2049 88.1241 75.57 91.9145 74.7288 95.9147C73.8876 99.915 73.8571 104.044 74.6392 108.056Z" fill="black"/>
<path d="M86.7041 89.3859C87.1324 87.6275 87.6036 85.8692 88.1319 84.1394" stroke="#2E353A" stroke-width="0.5" stroke-linecap="round" stroke-linejoin="round"/>
<path d="M45.7988 89.386C51.5098 93.5746 58.6486 99.393 62.3893 104.382C69.1284 113.574 82.6064 133.202 82.6064 133.202C82.2203 120.019 83.2639 106.833 85.7189 93.8748" stroke="#2E353A" stroke-width="0.5" stroke-linecap="round" stroke-linejoin="round"/>
<path d="M37.2891 83.5247C37.2891 83.5247 39.0738 84.6683 41.7437 86.5124" stroke="#2E353A" stroke-width="0.5" stroke-linecap="round" stroke-linejoin="round"/>
<path d="M82.6064 133.202C82.6064 133.202 105.879 109.9 115.673 108.056C125.468 106.212 134.048 113.574 134.048 113.574" stroke="#2E353A" stroke-width="0.5" stroke-linecap="round" stroke-linejoin="round"/>
<path d="M41.0162 152.687C35.3051 156.29 34.834 158.405 34.834 158.405" stroke="#2E353A" stroke-width="0.5" stroke-linecap="round" stroke-linejoin="round"/>
<path d="M133.434 154.66C133.434 154.66 129.765 145.453 116.901 141.165C104.036 136.876 83.848 136.261 83.848 136.261C83.848 136.261 55.5071 145.553 45.1416 150.4" stroke="#2E353A" stroke-width="0.5" stroke-linecap="round" stroke-linejoin="round"/>
<path d="M71.4551 132.759C78.3083 134.76 83.8337 136.261 83.8337 136.261" stroke="#2E353A" stroke-width="0.5" stroke-linecap="round" stroke-linejoin="round"/>
<path d="M28.3223 121.866C34.9756 122.266 43.5421 123.181 48.3108 125.225C52.1943 126.898 59.8471 129.314 67.0715 131.472" stroke="#2E353A" stroke-width="0.5" stroke-linecap="round" stroke-linejoin="round"/>
<path d="M18.9141 121.551C18.9141 121.551 21.1556 121.551 24.4538 121.68" stroke="#2E353A" stroke-width="0.5" stroke-linecap="round" stroke-linejoin="round"/>
<path d="M82.606 139.935C82.606 139.935 65.4729 165.667 64.2308 171.829C63.495 175.464 63.0841 179.157 63.0029 182.865" stroke="#2E353A" stroke-width="0.5" stroke-linecap="round" stroke-linejoin="round"/>
<path d="M90.2305 148.041C93.5286 152.33 97.4835 158.048 99.1397 162.623C101.067 168.204 102.501 173.944 103.423 179.777" stroke="#2E353A" stroke-width="0.5" stroke-linecap="round" stroke-linejoin="round"/>
<path d="M85.0479 141.78C85.0479 141.78 86.4756 143.295 88.3174 145.625" stroke="#2E353A" stroke-width="0.5" stroke-linecap="round" stroke-linejoin="round"/>
<path d="M66.8576 113.345C66.8576 113.345 63.7023 100.479 65.6583 88.5424C67.6143 76.6056 92.7857 51.6882 92.7857 51.6882C91.3867 59.4049 90.6937 67.2332 90.7154 75.0759C90.7154 88.6854 83.9336 124.482 83.9336 124.482C83.9336 124.482 87.9456 108.013 96.6834 100.179C105.421 92.3451 132.877 80.1652 134.362 79.1216C135.847 78.078 128.265 89.5431 123.311 98.4064C118.357 107.27 91.6149 131.043 91.6149 131.043C91.6149 131.043 106.549 125.582 117.143 122.466C127.737 119.35 151.409 135.561 151.409 135.561C151.409 135.561 133.32 133.474 122.083 137.777C110.847 142.08 94.1991 147.255 94.1991 147.255C94.1991 147.255 109.448 150.643 116.072 155.689C122.697 160.735 131.949 176.789 131.949 176.789C131.949 176.789 117.472 166.053 108.063 164.51C98.6537 162.966 85.9039 157.805 85.9039 157.805C86.3875 164.281 87.2359 170.724 88.4453 177.104C90.5441 188.44 97.0118 202.679 97.0118 202.679C97.0118 202.679 80.5498 193.387 76.0381 186.053C71.5264 178.719 70.0701 160.907 70.0701 160.907C70.0701 160.907 62.5886 160.993 57.2203 169.341C51.8519 177.69 47.897 199.448 47.897 199.448C47.897 199.448 39.1021 180.864 39.4304 170.857C39.7588 160.85 59.7188 143.438 59.7188 143.438C59.7188 143.438 42.7857 145.053 34.2477 148.913C25.7097 152.773 18.2568 163.423 18.2568 163.423C18.2568 163.423 18.2568 139.263 26.5093 131.83C34.7617 124.396 58.1911 128.685 58.1911 128.685L39.9159 111.63C35.3471 107.341 28.4082 93.4744 28.4082 93.4744C28.4082 93.4744 36.0324 92.5309 49.282 97.3485C53.1332 98.6987 56.6738 100.811 59.6932 103.559C62.7126 106.307 65.1491 109.635 66.8576 113.345Z" fill="#0B3E4C"/>
<path d="M46.1839 105.226C44.7562 104.039 43.4141 102.895 41.9863 101.78" stroke="#2E353A" stroke-width="0.5" stroke-linecap="round" stroke-linejoin="round"/>
<path d="M79.4078 81.3374C77.1948 88.0849 74.7248 96.9626 74.6677 103.195C74.5535 114.632 75.0389 138.406 75.0389 138.406C67.6695 127.475 59.1336 117.38 49.582 108.299" stroke="#2E353A" stroke-width="0.5" stroke-linecap="round" stroke-linejoin="round"/>
<path d="M82.9208 71.6021C82.9208 71.6021 82.1212 73.5749 81.0361 76.6198" stroke="#2E353A" stroke-width="0.5" stroke-linecap="round" stroke-linejoin="round"/>
<path d="M75.0386 138.406C75.0386 138.406 42.5572 133.073 33.5338 137.305C24.5103 141.536 21.8262 152.487 21.8262 152.487" stroke="#2E353A" stroke-width="0.5" stroke-linecap="round" stroke-linejoin="round"/>
<path d="M120.185 129.943C126.881 129.571 128.48 130.929 128.48 130.929" stroke="#2E353A" stroke-width="0.5" stroke-linecap="round" stroke-linejoin="round"/>
<path d="M46.2551 185.524C46.2551 185.524 43.885 175.903 51.8234 164.91C59.7617 153.916 75.8382 141.622 75.8382 141.622C75.8382 141.622 104.265 132.601 115.501 130.5" stroke="#2E353A" stroke-width="0.5" stroke-linecap="round" stroke-linejoin="round"/>
<path d="M83.848 131.544C79.4505 137.162 75.8525 141.622 75.8525 141.622" stroke="#2E353A" stroke-width="0.5" stroke-linecap="round" stroke-linejoin="round"/>
<path d="M112.532 97.5059C107.363 101.795 100.938 107.513 98.2541 111.902C96.0697 115.533 91.2581 121.909 86.6465 127.927" stroke="#2E353A" stroke-width="0.5" stroke-linecap="round" stroke-linejoin="round"/>
<path d="M119.985 91.7446C119.985 91.7446 118.171 93.0598 115.559 95.0898" stroke="#2E353A" stroke-width="0.5" stroke-linecap="round" stroke-linejoin="round"/>
<path d="M78.9658 143.909C78.9658 143.909 107.906 154.803 112.461 159.077C115.177 161.599 117.662 164.36 119.885 167.326" stroke="#2E353A" stroke-width="0.5" stroke-linecap="round" stroke-linejoin="round"/>
<path d="M77.4949 154.917C77.295 160.321 77.395 167.254 78.7513 171.972C80.4345 177.639 82.6181 183.146 85.2762 188.426" stroke="#2E353A" stroke-width="0.5" stroke-linecap="round" stroke-linejoin="round"/>
<path d="M78.0521 146.769C78.0521 146.769 77.8237 148.799 77.6523 151.801" stroke="#2E353A" stroke-width="0.5" stroke-linecap="round" stroke-linejoin="round"/>
<path d="M162.132 178.834H485.761C489.801 178.834 493.676 180.441 496.533 183.301C499.39 186.162 500.995 190.042 500.995 194.087V404.233C500.995 406.424 500.564 408.594 499.727 410.618C498.889 412.642 497.662 414.481 496.115 416.03C494.568 417.579 492.731 418.808 490.709 419.646C488.688 420.485 486.521 420.916 484.333 420.916H163.559C161.371 420.916 159.205 420.485 157.183 419.646C155.162 418.808 153.325 417.579 151.778 416.03C150.23 414.481 149.003 412.642 148.166 410.618C147.328 408.594 146.897 406.424 146.897 404.233V194.087C146.897 190.042 148.502 186.162 151.359 183.301C154.216 180.441 158.091 178.834 162.132 178.834Z" fill="white" stroke="#2E353A" stroke-linecap="round" stroke-linejoin="round"/>
<path d="M280.579 202.665H260.647V215.774H280.579V202.665Z" fill="#2E353A"/>
<path d="M216.001 283.535H197.497V301.919H216.001V283.535Z" fill="#2E353A"/>
<path d="M297.754 218.919H279.107V237.303H297.754V218.919Z" fill="#2E353A"/>
<path d="M257.492 202.665H237.561V215.774H257.492V202.665Z" fill="#2E353A"/>
<path d="M319.542 218.919H300.896V237.303H319.542V218.919Z" fill="#2E353A"/>
<path d="M303.651 202.665H283.72V215.774H303.651V202.665Z" fill="#2E353A"/>
<path d="M204.822 261.991H169.756V280.376H204.822V261.991Z" fill="#2E353A"/>
<path d="M254.165 218.919H235.519V237.303H254.165V218.919Z" fill="#2E353A"/>
<path d="M194.356 283.535H169.756V301.919H194.356V283.535Z" fill="#2E353A"/>
<path d="M326.738 202.665H306.807V215.774H326.738V202.665Z" fill="#2E353A"/>
<path d="M210.575 218.919H191.929V237.303H210.575V218.919Z" fill="#2E353A"/>
<path d="M211.333 202.665H191.401V215.774H211.333V202.665Z" fill="#2E353A"/>
<path d="M234.419 202.665H214.487V215.774H234.419V202.665Z" fill="#2E353A"/>
<path d="M232.363 218.919H213.717V237.303H232.363V218.919Z" fill="#2E353A"/>
<path d="M275.953 218.919H257.307V237.303H275.953V218.919Z" fill="#2E353A"/>
<path d="M419.071 202.665H399.14V215.774H419.071V202.665Z" fill="#2E353A"/>
<path d="M442.143 202.665H422.212V215.774H442.143V202.665Z" fill="#2E353A"/>
<path d="M428.522 218.919H409.876V237.303H428.522V218.919Z" fill="#2E353A"/>
<path d="M450.324 218.919H431.678V237.303H450.324V218.919Z" fill="#2E353A"/>
<path d="M484.804 283.535H457.349V301.919H484.804V283.535Z" fill="#2E353A"/>
<path d="M465.23 202.665H445.299V215.774H465.23V202.665Z" fill="#2E353A"/>
<path d="M188.788 218.919H169.756V237.303H188.788V218.919Z" fill="#2E353A"/>
<path d="M349.825 202.665H329.894V215.774H349.825V202.665Z" fill="#2E353A"/>
<path d="M372.897 202.665H352.966V215.774H372.897V202.665Z" fill="#2E353A"/>
<path d="M363.146 218.919H344.499V237.303H363.146V218.919Z" fill="#2E353A"/>
<path d="M406.734 218.919H388.088V237.303H406.734V218.919Z" fill="#2E353A"/>
<path d="M341.344 218.919H322.697V237.303H341.344V218.919Z" fill="#2E353A"/>
<path d="M384.934 218.919H366.287V237.303H384.934V218.919Z" fill="#2E353A"/>
<path d="M395.984 202.665H376.053V215.774H395.984V202.665Z" fill="#2E353A"/>
<path d="M367.586 283.535H349.082V301.919H367.586V283.535Z" fill="#2E353A"/>
<path d="M464.673 261.991H446.169V280.376H464.673V261.991Z" fill="#2E353A"/>
<path d="M443.014 261.991H424.511V280.376H443.014V261.991Z" fill="#2E353A"/>
<path d="M454.193 283.535H435.689V301.919H454.193V283.535Z" fill="#2E353A"/>
<path d="M432.549 283.535H414.045V301.919H432.549V283.535Z" fill="#2E353A"/>
<path d="M389.23 283.535H370.727V301.919H389.23V283.535Z" fill="#2E353A"/>
<path d="M410.889 283.535H392.386V301.919H410.889V283.535Z" fill="#2E353A"/>
<path d="M421.355 261.991H402.852V280.376H421.355V261.991Z" fill="#2E353A"/>
<path d="M399.71 261.991H381.206V280.376H399.71V261.991Z" fill="#2E353A"/>
<path d="M484.819 202.665H468.386V215.774H484.819V202.665Z" fill="#2E353A"/>
<path d="M188.26 202.665H169.756V215.774H188.26V202.665Z" fill="#2E353A"/>
<path d="M484.819 305.064H169.756V324.178H484.819V305.064Z" fill="#2E353A"/>
<path d="M484.804 218.919H453.465V237.303H484.804V218.919Z" fill="#2E353A"/>
<path d="M484.805 261.991H467.814V280.376H484.805V261.991Z" fill="#2E353A"/>
<path d="M462.588 258.704H459.433V240.462H440.929V258.704H437.788V240.462H419.285V258.704H416.129V240.462H397.626V258.704H394.47V240.462H375.967V258.704H372.825V240.462H354.322V258.704H351.166V240.462H332.663V258.704H329.507V240.462H311.004V258.704H307.863V240.462H289.359V258.704H286.204V240.462H267.7V258.704H264.545V240.462H246.041V258.704H242.9V240.462H224.396V258.704H221.241V240.462H202.737V258.704H199.582V240.462H169.756V258.847H484.804V240.462H462.588V258.704Z" fill="#2E353A"/>
<path d="M313.089 261.991H294.585V280.376H313.089V261.991Z" fill="#2E353A"/>
<path d="M378.052 261.991H359.548V280.376H378.052V261.991Z" fill="#2E353A"/>
<path d="M269.784 261.991H251.28V280.376H269.784V261.991Z" fill="#2E353A"/>
<path d="M280.964 283.535H262.46V301.919H280.964V283.535Z" fill="#2E353A"/>
<path d="M291.43 261.991H272.926V280.376H291.43V261.991Z" fill="#2E353A"/>
<path d="M248.126 261.991H229.622V280.376H248.126V261.991Z" fill="#2E353A"/>
<path d="M237.66 283.535H219.156V301.919H237.66V283.535Z" fill="#2E353A"/>
<path d="M259.304 283.535H240.801V301.919H259.304V283.535Z" fill="#2E353A"/>
<path d="M334.748 261.991H316.244V280.376H334.748V261.991Z" fill="#2E353A"/>
<path d="M345.927 283.535H327.423V301.919H345.927V283.535Z" fill="#2E353A"/>
<path d="M356.392 261.991H337.889V280.376H356.392V261.991Z" fill="#2E353A"/>
<path d="M302.623 283.535H284.119V301.919H302.623V283.535Z" fill="#2E353A"/>
<path d="M324.267 283.535H305.764V301.919H324.267V283.535Z" fill="#2E353A"/>
<path d="M226.467 261.991H207.963V280.376H226.467V261.991Z" fill="#2E353A"/>
<path d="M521.212 47.3137H124.782C122.838 47.3152 120.92 47.7644 119.177 48.6265C117.434 49.4885 115.912 50.7404 114.729 52.2853C113.547 53.8301 112.735 55.6267 112.356 57.536C111.977 59.4452 112.042 61.4161 112.546 63.2963L141.529 171.343C142.252 174.04 143.842 176.423 146.054 178.124C148.266 179.824 150.976 180.747 153.765 180.749H194.228V188.226H453.637V180.792H492.186C494.975 180.79 497.685 179.867 499.897 178.167C502.109 176.466 503.7 174.083 504.422 171.386L533.405 63.3391C533.916 61.4597 533.987 59.4879 533.615 57.5763C533.242 55.6647 532.435 53.8646 531.256 52.3153C530.078 50.766 528.559 49.509 526.817 48.6417C525.075 47.7744 523.157 47.32 521.212 47.3137Z" fill="#2E353A" stroke="#2E353A" stroke-linecap="round" stroke-linejoin="round"/>
<path d="M476.381 171.214H169.613L138.931 60.6658H507.049L476.381 171.214Z" fill="#0B3E4C" stroke="#2E353A" stroke-linecap="round" stroke-linejoin="round"/>
<path d="M189.973 122.695V124.124H184.562V122.695H189.973Z" fill="white"/>
<path d="M196.713 122.695V124.124H191.287V122.695H196.713Z" fill="white"/>
<path d="M203.451 122.695V124.124H198.068V122.695H203.451Z" fill="white"/>
<path d="M210.176 122.695V124.124H204.765V122.695H210.176Z" fill="white"/>
<path d="M216.915 122.695V124.124H211.489V122.695H216.915Z" fill="white"/>
<path d="M223.654 122.695V124.124H218.229V122.695H223.654Z" fill="white"/>
<path d="M230.379 122.695V124.124H224.968V122.695H230.379Z" fill="white"/>
<path d="M237.046 130.229L231.078 114.303H232.506L238.474 130.229H237.046Z" fill="white"/>
<path d="M184.519 99.5071V100.937H179.107V99.5071H184.519Z" fill="white"/>
<path d="M191.258 99.5071V100.937H185.847V99.5071H191.258Z" fill="white"/>
<path d="M198.069 99.5071V100.937H192.644V99.5071H198.069Z" fill="white"/>
<path d="M204.736 99.5071V100.937H199.311V99.5071H204.736Z" fill="white"/>
<path d="M211.461 99.5071V100.937H206.05V99.5071H211.461Z" fill="white"/>
<path d="M222.854 99.5071V100.937H217.429V99.5071H222.854Z" fill="white"/>
<path d="M229.579 99.5071V100.937H224.168V99.5071H229.579Z" fill="white"/>
<path d="M236.318 99.5071V100.937H230.907V99.5071H236.318Z" fill="white"/>
<path d="M243.057 99.5071V100.937H237.632V99.5071H243.057Z" fill="white"/>
<path d="M249.781 99.5071V100.937H244.37V99.5071H249.781Z" fill="white"/>
<path d="M256.521 99.5071V100.937H251.109V99.5071H256.521Z" fill="white"/>
<path d="M263.259 99.5071V100.937H257.834V99.5071H263.259Z" fill="white"/>
<path d="M274.639 99.5071V100.937H269.228V99.5071H274.639Z" fill="white"/>
<path d="M281.378 99.5071V100.937H275.952V99.5071H281.378Z" fill="white"/>
<path d="M288.117 99.5071V100.937H282.691V99.5071H288.117Z" fill="white"/>
<path d="M299.439 99.5071V100.937H294.028V99.5071H299.439Z" fill="white"/>
<path d="M306.236 99.5071V100.937H300.867V99.5071H306.236Z" fill="white"/>
<path d="M312.974 99.5071V100.937H307.549V99.5071H312.974Z" fill="white"/>
<path d="M338.303 99.5071V100.937H332.892V99.5071H338.303Z" fill="white"/>
<path d="M345.042 99.5071V100.937H339.616V99.5071H345.042Z" fill="white"/>
<path d="M351.781 99.5071V100.937H346.355V99.5071H351.781Z" fill="white"/>
<path d="M358.505 99.5071V100.937H353.094V99.5071H358.505Z" fill="white"/>
<path d="M365.245 99.5071V100.937H359.819V99.5071H365.245Z" fill="white"/>
<path d="M376.623 99.5071V100.937H371.212V99.5071H376.623Z" fill="white"/>
<path d="M383.363 99.5071V100.937H377.966V99.5071H383.363Z" fill="white"/>
<path d="M390.101 99.5071V100.937H384.676V99.5071H390.101Z" fill="white"/>
<path d="M401.481 99.5071V100.937H396.069V99.5071H401.481Z" fill="white"/>
<path d="M412.875 99.5071V100.937H407.449V99.5071H412.875Z" fill="white"/>
<path d="M503.165 334.457L487.888 393.469L502.337 397.715L503.165 334.457Z" fill="white" stroke="#2E353A" stroke-linecap="round" stroke-linejoin="round"/>
<path d="M510.018 272.084C508.294 269.432 507.665 266.214 508.262 263.107C509.047 257.288 516.058 255.959 516.058 255.959C516.058 255.959 517.585 254.801 523.196 256.931C528.807 259.061 572.197 264.951 599.924 268.711C627.651 272.47 636.632 270.04 636.246 279.575C635.861 289.111 611.532 374.684 611.16 377.372C610.789 380.06 510.018 272.084 510.018 272.084Z" fill="white" stroke="#2E353A" stroke-miterlimit="10"/>
<path d="M626.643 287.919L510.006 272.087L491.158 411.297L607.796 427.129L626.643 287.919Z" fill="white" stroke="#2E353A" stroke-linecap="round" stroke-linejoin="round"/>
<path d="M604.964 315.686L611.746 316.615" stroke="#2E353A" stroke-width="0.5" stroke-linecap="round" stroke-linejoin="round"/>
<path d="M562.488 309.925L599.596 314.971" stroke="#2E353A" stroke-width="0.5" stroke-linecap="round" stroke-linejoin="round"/>
<path d="M517.514 303.821L557.12 309.196" stroke="#2E353A" stroke-width="0.5" stroke-linecap="round" stroke-linejoin="round"/>
<path d="M594.341 326.851L610.075 328.995" stroke="#2E353A" stroke-width="0.5" stroke-linecap="round" stroke-linejoin="round"/>
<path d="M515.843 316.201L578.25 324.664" stroke="#2E353A" stroke-width="0.5" stroke-linecap="round" stroke-linejoin="round"/>
<path d="M547.511 333.098L608.405 341.361" stroke="#2E353A" stroke-width="0.5" stroke-linecap="round" stroke-linejoin="round"/>
<path d="M514.158 328.567L541.243 332.255" stroke="#2E353A" stroke-width="0.5" stroke-linecap="round" stroke-linejoin="round"/>
<path d="M567.742 348.452L606.72 353.741" stroke="#2E353A" stroke-width="0.5" stroke-linecap="round" stroke-linejoin="round"/>
<path d="M534.661 343.949L563.273 347.837" stroke="#2E353A" stroke-width="0.5" stroke-linecap="round" stroke-linejoin="round"/>
<path d="M512.488 340.947L529.736 343.291" stroke="#2E353A" stroke-width="0.5" stroke-linecap="round" stroke-linejoin="round"/>
<path d="M591.101 364.22L605.05 366.107" stroke="#2E353A" stroke-width="0.5" stroke-linecap="round" stroke-linejoin="round"/>
<path d="M510.817 353.327L581.72 362.948" stroke="#2E353A" stroke-width="0.5" stroke-linecap="round" stroke-linejoin="round"/>
<path d="M563.944 373.126L603.379 378.487" stroke="#2E353A" stroke-width="0.5" stroke-linecap="round" stroke-linejoin="round"/>
<path d="M509.133 365.692L557.234 372.225" stroke="#2E353A" stroke-width="0.5" stroke-linecap="round" stroke-linejoin="round"/>
<path d="M576.123 387.393L601.694 390.853" stroke="#2E353A" stroke-width="0.5" stroke-linecap="round" stroke-linejoin="round"/>
<path d="M524.267 380.345L569.869 386.535" stroke="#2E353A" stroke-width="0.5" stroke-linecap="round" stroke-linejoin="round"/>
<path d="M507.462 378.072L518.898 379.616" stroke="#2E353A" stroke-width="0.5" stroke-linecap="round" stroke-linejoin="round"/>
<path d="M626.651 287.924C626.651 287.924 628.65 268.511 635.789 276.316" stroke="#2E353A" stroke-linecap="round" stroke-linejoin="round"/>
<path d="M587.102 437.471L586.974 449.808L579.792 439.658L550.966 342.576L558.276 340.389L587.102 437.471Z" fill="white" stroke="#2E353A" stroke-linecap="round" stroke-linejoin="round"/>
<path d="M555.414 344.538L551.426 345.702L579.75 442.936L583.738 441.771L555.414 344.538Z" fill="#0B3E4C" stroke="#2E353A" stroke-width="0.5" stroke-linecap="round" stroke-linejoin="round"/>
<path d="M587.102 437.499L579.807 439.672L586.974 449.808L587.102 437.499Z" stroke="#2E353A" stroke-linecap="round" stroke-linejoin="round"/>
<path d="M583.391 444.733L586.974 449.808L587.046 443.647L583.391 444.733Z" fill="#2E353A" stroke="#2E353A" stroke-linecap="round" stroke-linejoin="round"/>
<path d="M551.394 330.611C550.427 330.902 549.614 331.565 549.132 332.454C548.651 333.343 548.54 334.386 548.824 335.357L550.966 342.576L558.276 340.403L556.134 333.184C555.843 332.216 555.182 331.401 554.294 330.919C553.406 330.437 552.364 330.327 551.394 330.611Z" fill="white" stroke="#2E353A" stroke-linecap="round" stroke-linejoin="round"/>
<path d="M551.394 330.611C550.427 330.902 549.614 331.565 549.132 332.454C548.651 333.343 548.54 334.386 548.824 335.357L549.852 338.802L557.148 336.629L556.134 333.184C555.844 332.216 555.182 331.402 554.294 330.919C553.406 330.437 552.364 330.327 551.394 330.611Z" fill="#2E353A" stroke="#2E353A" stroke-linecap="round" stroke-linejoin="round"/>
<path d="M191.858 273.271C190.944 274.558 190.045 275.901 189.146 277.317" stroke="white" stroke-linecap="round" stroke-linejoin="round"/>
<path d="M206.792 256.059C202.814 259.751 199.133 263.752 195.784 268.025" stroke="white" stroke-linecap="round" stroke-linejoin="round"/>
<path d="M190.587 263.65C186.687 269.128 183.152 274.859 180.008 280.805" stroke="white" stroke-linecap="round" stroke-linejoin="round"/>
<path d="M291.287 295.086C290.387 296.373 289.474 297.717 288.574 299.118" stroke="white" stroke-linecap="round" stroke-linejoin="round"/>
<path d="M306.221 277.874C302.25 281.569 298.574 285.57 295.228 289.84" stroke="white" stroke-linecap="round" stroke-linejoin="round"/>
<path d="M290.031 285.437C286.132 290.946 282.598 296.705 279.451 302.677" stroke="white" stroke-linecap="round" stroke-linejoin="round"/>
<path d="M433.806 259.705C432.507 258.818 431.136 257.932 429.723 257.046" stroke="white" stroke-linecap="round" stroke-linejoin="round"/>
<path d="M451.224 274.4C447.469 270.485 443.417 266.867 439.103 263.579" stroke="white" stroke-linecap="round" stroke-linejoin="round"/>
<path d="M443.401 258.275C437.844 254.455 432.045 251.002 426.039 247.939" stroke="white" stroke-linecap="round" stroke-linejoin="round"/>
<path d="M286.946 348.338C286.204 353.713 285.09 361.204 283.977 365.65" stroke="#2E353A" stroke-linecap="round" stroke-linejoin="round"/>
<path d="M287.775 341.804C287.775 341.804 287.66 342.819 287.446 344.463" stroke="#2E353A" stroke-linecap="round" stroke-linejoin="round"/>
<path d="M291.587 357.058C290.028 362.265 288.12 367.361 285.876 372.311" stroke="#2E353A" stroke-linecap="round" stroke-linejoin="round"/>
<path d="M362.975 364.677C362.975 364.677 363.931 377.072 370.585 383.748" stroke="#2E353A" stroke-linecap="round" stroke-linejoin="round"/>
<path d="M362.019 377.072C362.019 377.072 364.874 385.649 370.585 389.466" stroke="#2E353A" stroke-linecap="round" stroke-linejoin="round"/>
<g style="mix-blend-mode:multiply">
<path d="M168.086 443.318C168.086 443.318 174.425 438.214 174.425 394.341C174.425 350.468 181.721 318.417 190.716 304.364C199.711 290.312 208.12 284.679 212.061 284.679C216.001 284.679 213.174 289.74 207.563 297.045C201.952 304.35 196.898 308.296 194.642 317.302C192.386 326.308 192.401 337.544 195.213 336.415C198.026 335.286 202.509 312.799 206.435 304.364C210.362 295.93 219.928 285.237 225.539 280.176C231.15 275.115 243.514 259.933 249.125 263.865C254.736 267.796 251.381 273.428 248.012 275.673C244.642 277.917 231.15 291.398 224.982 299.861C218.814 308.324 214.873 329.668 218.243 330.225C221.612 330.783 231.721 299.304 237.332 292.556C242.943 285.808 265.416 267.238 270.47 266.681C275.525 266.123 276.096 273.986 271.598 277.932C267.101 281.877 251.938 298.732 246.884 308.853C241.83 318.974 239.574 337.544 244.028 333.041C248.483 328.538 255.822 309.982 262.004 303.792C268.186 297.602 286.718 277.932 291.216 280.176C295.713 282.42 294.585 288.053 290.659 291.984C286.732 295.915 271.555 317.302 267.629 328.538C263.703 339.775 259.191 371.282 261.447 366.793C263.703 362.305 270.999 339.231 274.925 329.625C278.851 320.018 286.718 315.572 287.846 320.061C288.974 324.55 286.718 326.808 283.905 336.944C281.093 347.08 281.05 374.113 272.683 389.238C264.317 404.362 230.736 436.728 226.253 447.964C223.005 455.703 219.128 463.162 214.659 470.265" fill="#0B3E4C"/>
</g>
<g style="mix-blend-mode:multiply">
<path d="M480.122 447.121C480.122 447.121 473.626 438.214 473.626 394.341C473.626 350.468 466.316 318.417 457.335 304.364C448.355 290.312 439.917 284.679 435.99 284.679C432.064 284.679 434.862 289.74 440.488 297.045C446.113 304.35 451.153 308.296 453.338 317.302C455.522 326.308 455.593 337.544 452.781 336.415C449.968 335.286 445.485 312.799 441.544 304.364C437.604 295.93 428.066 285.237 422.455 280.176C416.844 275.115 404.48 259.933 398.854 263.865C393.229 267.796 396.613 273.428 399.982 275.673C403.352 277.917 416.83 291.398 423.012 299.861C429.194 308.324 433.12 329.668 429.751 330.225C426.381 330.783 416.316 299.304 410.705 292.585C405.094 285.866 382.607 267.267 377.552 266.709C372.498 266.152 371.941 274.015 376.439 277.96C380.936 281.906 396.099 298.76 401.153 308.882C406.207 319.003 408.449 337.573 404.009 333.07C399.568 328.567 392.215 310.011 386.047 303.821C379.88 297.631 361.333 277.96 356.836 280.205C352.338 282.449 353.466 288.082 357.392 292.013C361.319 295.944 376.496 317.33 380.422 328.567C384.348 339.803 388.846 371.311 386.604 366.822C384.363 362.333 377.053 339.26 373.126 329.653C369.2 320.047 361.333 315.601 360.205 320.089C359.077 324.578 361.333 326.837 364.131 336.973C366.93 347.108 366.987 374.141 375.368 389.266C383.749 404.391 416.373 433.911 420.87 445.162C425.368 456.413 433.506 474.139 433.506 474.139" fill="#0B3E4C"/>
</g>
<path d="M165.944 454.126C165.944 454.126 174.368 426.578 174.368 382.647C174.368 338.717 181.664 306.723 190.659 292.67C199.654 278.618 208.063 272.985 212.004 272.985C215.944 272.985 213.117 278.046 207.506 285.351C201.895 292.656 196.841 296.602 194.585 305.594C192.329 314.586 192.344 325.851 195.156 324.721C197.969 323.592 202.452 301.105 206.378 292.67C210.305 284.236 219.871 273.543 225.482 268.482C231.093 263.421 243.457 248.24 249.068 252.171C254.679 256.102 251.324 261.735 247.955 263.979C244.585 266.223 231.093 279.704 224.925 288.167C218.757 296.63 214.816 317.974 218.186 318.531C221.555 319.089 231.664 287.61 237.275 280.848C242.886 274.086 265.359 255.545 270.413 254.987C275.467 254.43 276.039 262.292 271.541 266.238C267.044 270.183 251.881 287.038 246.827 297.159C241.772 307.281 239.517 325.851 243.971 321.347C248.426 316.844 255.764 298.289 261.947 292.099C268.129 285.909 286.661 266.238 291.158 268.482C295.656 270.727 294.528 276.359 290.602 280.29C286.675 284.222 271.498 305.594 267.572 316.844C263.646 328.095 259.134 359.588 261.39 355.085C263.646 350.582 270.941 327.537 274.868 317.917C278.794 308.296 286.661 303.85 287.789 308.353C288.917 312.856 286.661 315.1 283.848 325.222C281.036 335.343 280.993 362.39 272.626 377.529C264.26 392.669 231.621 433.769 227.124 445.019C222.626 456.27 212.518 481.016 212.518 481.016" fill="white"/>
<path d="M165.944 454.126C165.944 454.126 174.368 426.578 174.368 382.647C174.368 338.717 181.664 306.723 190.659 292.67C199.654 278.618 208.063 272.985 212.004 272.985C215.944 272.985 213.117 278.046 207.506 285.351C201.895 292.656 196.841 296.602 194.585 305.594C192.329 314.586 192.344 325.851 195.156 324.721C197.969 323.592 202.452 301.105 206.378 292.67C210.305 284.236 219.871 273.543 225.482 268.482C231.093 263.421 243.457 248.24 249.068 252.171C254.679 256.102 251.324 261.735 247.955 263.979C244.585 266.223 231.093 279.704 224.925 288.167C218.757 296.63 214.816 317.974 218.186 318.531C221.555 319.089 231.664 287.61 237.275 280.848C242.886 274.086 265.359 255.545 270.413 254.987C275.467 254.43 276.039 262.292 271.541 266.238C267.044 270.183 251.881 287.038 246.827 297.159C241.772 307.281 239.517 325.851 243.971 321.347C248.426 316.844 255.764 298.289 261.947 292.099C268.129 285.909 286.661 266.238 291.158 268.482C295.656 270.727 294.528 276.359 290.602 280.29C286.675 284.222 271.498 305.594 267.572 316.844C263.646 328.095 259.134 359.588 261.39 355.085C263.646 350.582 270.941 327.538 274.868 317.917C278.794 308.296 286.661 303.85 287.789 308.353C288.917 312.856 286.661 315.1 283.848 325.222C281.036 335.343 280.993 362.39 272.626 377.529C264.26 392.669 231.621 433.769 227.124 445.019C222.626 456.27 212.518 481.016 212.518 481.016" stroke="#2E353A" stroke-linecap="round" stroke-linejoin="round"/>
<path d="M482.035 454.126C482.035 454.126 473.611 426.578 473.611 382.647C473.611 338.717 466.301 306.723 457.32 292.67C448.34 278.618 439.902 272.985 435.976 272.985C432.049 272.985 434.848 278.046 440.473 285.351C446.098 292.656 451.138 296.602 453.323 305.594C455.507 314.586 455.579 325.851 452.766 324.721C449.953 323.592 445.47 301.105 441.53 292.67C437.589 284.236 428.052 273.543 422.44 268.482C416.829 263.421 404.465 248.24 398.84 252.171C393.214 256.102 396.598 261.735 399.968 263.979C403.337 266.223 416.815 279.704 422.997 288.167C429.179 296.63 433.106 317.974 429.736 318.531C426.367 319.089 416.258 287.61 410.647 280.848C405.036 274.086 382.549 255.545 377.495 254.987C372.44 254.43 371.884 262.292 376.381 266.238C380.878 270.183 396.041 287.038 401.096 297.159C406.15 307.281 408.391 325.851 403.951 321.347C399.511 316.844 392.158 298.289 385.99 292.099C379.822 285.909 361.275 266.238 356.778 268.482C352.281 270.727 353.408 276.359 357.335 280.29C361.261 284.222 376.438 305.594 380.364 316.844C384.291 328.095 388.788 359.588 386.547 355.085C384.305 350.582 376.995 327.537 373.069 317.917C369.142 308.296 361.275 303.85 360.147 308.353C359.02 312.856 361.275 315.1 364.074 325.222C366.872 335.343 366.929 362.39 375.31 377.529C383.691 392.669 416.315 433.769 420.813 445.019C425.31 456.27 435.419 481.016 435.419 481.016" fill="white"/>
<path d="M482.035 454.126C482.035 454.126 473.611 426.578 473.611 382.647C473.611 338.717 466.301 306.723 457.32 292.67C448.34 278.618 439.902 272.985 435.976 272.985C432.049 272.985 434.848 278.046 440.473 285.351C446.098 292.656 451.138 296.602 453.323 305.594C455.507 314.586 455.579 325.851 452.766 324.721C449.953 323.592 445.47 301.105 441.53 292.67C437.589 284.236 428.052 273.543 422.44 268.482C416.829 263.421 404.465 248.24 398.84 252.171C393.214 256.102 396.598 261.735 399.968 263.979C403.337 266.223 416.815 279.704 422.997 288.167C429.179 296.63 433.106 317.974 429.736 318.531C426.367 319.089 416.258 287.61 410.647 280.848C405.036 274.086 382.549 255.545 377.495 254.987C372.44 254.43 371.884 262.292 376.381 266.238C380.878 270.183 396.041 287.038 401.096 297.159C406.15 307.281 408.391 325.851 403.951 321.347C399.511 316.844 392.158 298.289 385.99 292.099C379.822 285.909 361.275 266.238 356.778 268.482C352.281 270.727 353.408 276.359 357.335 280.29C361.261 284.222 376.438 305.594 380.364 316.844C384.291 328.095 388.788 359.588 386.547 355.085C384.305 350.582 376.995 327.538 373.069 317.917C369.142 308.296 361.275 303.85 360.147 308.353C359.02 312.856 361.275 315.1 364.074 325.222C366.872 335.343 366.929 362.39 375.31 377.529C383.691 392.669 416.315 433.769 420.813 445.019C425.31 456.27 435.419 481.016 435.419 481.016" stroke="#2E353A" stroke-linecap="round" stroke-linejoin="round"/>
<path d="M130.394 539.899H216.059C217.173 535.611 218.572 530.807 220.342 525.604C227.081 505.39 248.897 480.115 248.897 480.115C233.261 466.327 214.888 456.008 194.985 449.837C162.147 439.715 138.103 442.689 138.103 442.689C142.53 460.961 143.016 479.967 139.531 498.442C135.248 519.256 132.392 532.423 130.394 539.899Z" fill="#2E353A" stroke="#2E353A" stroke-linecap="round" stroke-linejoin="round"/>
<path d="M431.364 539.899H520.37C517.515 532.494 511.347 516.412 505.179 500.329C496.755 478.428 500.125 448.95 496.755 448.95C493.386 448.95 455.536 446.42 437.032 452.31C418.528 458.2 397.483 475.054 397.483 475.054C407.01 486.138 415.2 498.306 421.884 511.308C426.18 520.422 429.363 530.022 431.364 539.899Z" fill="#2E353A" stroke="#2E353A" stroke-linecap="round" stroke-linejoin="round"/>
<path d="M183.906 460.13C183.292 457.699 174.154 461.359 174.154 461.359C174.154 461.359 177.209 449.78 172.341 449.78C167.472 449.78 166.858 458.357 166.858 458.357C166.858 458.357 157.721 454.712 157.721 460.187C157.721 465.662 163.803 465.562 163.803 465.562C163.803 465.562 156.493 474.711 161.975 476.527C167.458 478.342 171.099 471.652 171.099 471.652C171.099 471.652 174.754 477.756 179.665 475.312C184.577 472.867 180.879 467.392 180.879 467.392C180.879 467.392 184.505 462.574 183.906 460.13ZM171.727 469.279C171.267 469.176 170.846 468.946 170.511 468.615C170.177 468.283 169.943 467.863 169.836 467.404C169.729 466.945 169.754 466.465 169.908 466.02C170.062 465.574 170.338 465.181 170.705 464.886C171.072 464.591 171.515 464.406 171.983 464.352C172.451 464.297 172.924 464.377 173.349 464.58C173.773 464.784 174.132 465.104 174.383 465.502C174.634 465.901 174.768 466.363 174.768 466.834C174.665 467.552 174.294 468.203 173.729 468.657C173.165 469.111 172.449 469.333 171.727 469.279ZM197.298 528.463C196.684 526.033 187.546 529.692 187.546 529.692C187.546 529.692 190.602 518.113 185.719 518.113C180.836 518.113 180.251 526.69 180.251 526.69C180.251 526.69 171.113 523.03 171.113 528.506C171.113 533.981 177.209 533.995 177.209 533.995C177.209 533.995 169.899 543.144 175.382 544.974C180.865 546.804 184.505 540.085 184.505 540.085C184.505 540.085 188.16 546.189 193.072 543.745C197.983 541.3 194.285 535.825 194.285 535.825C194.285 535.825 197.898 530.836 197.298 528.463ZM185.119 537.612C184.66 537.51 184.238 537.279 183.904 536.948C183.569 536.616 183.335 536.197 183.228 535.737C183.122 535.278 183.146 534.798 183.3 534.353C183.454 533.907 183.73 533.514 184.098 533.219C184.465 532.924 184.908 532.739 185.375 532.685C185.843 532.631 186.316 532.71 186.741 532.914C187.166 533.117 187.524 533.437 187.775 533.836C188.026 534.234 188.16 534.696 188.16 535.168C188.057 535.88 187.683 536.524 187.116 536.966C186.55 537.409 185.834 537.614 185.119 537.541V537.612ZM143.714 537.612C143.1 535.167 133.977 538.827 133.977 538.827C133.977 538.827 137.018 527.248 132.15 527.248C127.281 527.248 126.667 535.825 126.667 535.825C126.667 535.825 117.529 532.165 117.529 537.655C117.529 543.144 123.626 543.144 123.626 543.144C123.626 543.144 116.316 552.279 121.798 554.109C127.281 555.939 130.922 549.234 130.922 549.234C130.922 549.234 134.577 555.324 139.488 552.894C144.4 550.464 140.716 544.974 140.716 544.974C140.716 544.974 144.328 539.971 143.729 537.541L143.714 537.612ZM131.536 546.747C131.075 546.645 130.654 546.414 130.319 546.081C129.984 545.749 129.75 545.329 129.644 544.869C129.538 544.409 129.563 543.928 129.718 543.483C129.873 543.037 130.151 542.644 130.52 542.35C130.888 542.055 131.332 541.871 131.801 541.819C132.269 541.766 132.743 541.848 133.167 542.053C133.591 542.259 133.949 542.581 134.198 542.981C134.448 543.382 134.579 543.845 134.577 544.317C134.47 545.023 134.097 545.662 133.534 546.101C132.97 546.54 132.26 546.746 131.55 546.675L131.536 546.747ZM210.062 490.065H216.758C221.627 490.065 224.668 495.554 224.668 495.554C214.331 498.528 210.076 489.993 210.076 489.993L210.062 490.065ZM203.366 537.612H210.062C214.931 537.612 217.972 543.102 217.972 543.102C207.635 546.075 203.38 537.541 203.38 537.541L203.366 537.612ZM144.942 528.463H151.638C156.507 528.463 159.548 533.952 159.548 533.952C149.197 536.926 144.942 528.463 144.942 528.463ZM177.309 485.447L181.221 490.894C184.077 494.868 181.379 500.529 181.379 500.529C172.869 493.824 177.309 485.376 177.309 485.376V485.447ZM143.814 503.66L146.87 497.699C149.111 493.41 155.365 493.153 155.365 493.153C153.266 503.76 143.814 503.66 143.814 503.66Z" fill="white"/>
<path d="M470.614 471.709C470 469.279 460.862 472.938 460.862 472.938C460.862 472.938 463.918 461.359 459.049 461.359C454.18 461.359 453.566 469.936 453.566 469.936C453.566 469.936 444.429 466.291 444.429 471.766C444.429 477.241 450.525 477.256 450.525 477.256C450.525 477.256 443.215 486.405 448.698 488.235C454.18 490.065 457.821 483.346 457.821 483.346C457.821 483.346 461.476 489.45 466.388 487.005C471.299 484.561 467.601 479.086 467.601 479.086C467.601 479.086 471.213 474.139 470.614 471.709ZM458.435 480.858C457.975 480.756 457.554 480.526 457.219 480.194C456.885 479.862 456.651 479.443 456.544 478.984C456.437 478.524 456.462 478.045 456.616 477.599C456.77 477.153 457.046 476.76 457.413 476.465C457.78 476.17 458.223 475.985 458.691 475.931C459.159 475.877 459.632 475.956 460.057 476.16C460.481 476.364 460.84 476.683 461.091 477.082C461.342 477.481 461.476 477.942 461.476 478.414C461.39 479.139 461.023 479.801 460.454 480.258C459.886 480.715 459.161 480.931 458.435 480.858ZM499.212 519.256C498.612 516.812 489.474 520.472 489.474 520.472C489.474 520.472 492.515 508.892 487.647 508.892C482.778 508.892 482.178 517.469 482.178 517.469C482.178 517.469 473.041 513.81 473.041 519.299C473.041 524.789 479.123 524.789 479.123 524.789C479.123 524.789 471.827 533.924 477.31 535.754C482.792 537.583 486.433 530.879 486.433 530.879C486.433 530.879 490.088 536.969 495 534.538C499.911 532.108 496.213 526.619 496.213 526.619C496.213 526.619 499.826 521.687 499.212 519.256ZM487.047 528.463C486.587 528.36 486.165 528.13 485.83 527.797C485.496 527.465 485.262 527.044 485.155 526.585C485.049 526.125 485.075 525.644 485.23 525.198C485.385 524.753 485.663 524.36 486.031 524.065C486.4 523.771 486.844 523.587 487.312 523.534C487.781 523.482 488.254 523.563 488.679 523.769C489.103 523.975 489.46 524.296 489.71 524.697C489.959 525.098 490.09 525.561 490.088 526.033C489.999 526.755 489.63 527.414 489.062 527.868C488.494 528.322 487.771 528.536 487.047 528.463ZM468.786 537.612C468.172 535.167 459.049 538.827 459.049 538.827C459.049 538.827 462.09 527.248 457.221 527.248C452.353 527.248 451.739 535.825 451.739 535.825C451.739 535.825 442.601 532.165 442.601 537.655C442.601 543.144 448.698 543.144 448.698 543.144C448.698 543.144 441.388 552.279 446.87 554.109C452.353 555.939 455.993 549.234 455.993 549.234C455.993 549.234 459.649 555.324 464.56 552.894C469.471 550.464 465.788 544.974 465.788 544.974C465.788 544.974 469.343 539.971 468.786 537.541V537.612ZM456.607 546.747C456.147 546.644 455.725 546.414 455.391 546.081C455.056 545.749 454.822 545.329 454.716 544.869C454.609 544.409 454.635 543.928 454.79 543.483C454.945 543.037 455.223 542.644 455.591 542.35C455.96 542.055 456.404 541.871 456.872 541.819C457.341 541.766 457.815 541.848 458.239 542.053C458.663 542.259 459.021 542.581 459.27 542.981C459.52 543.382 459.651 543.845 459.649 544.317C459.542 545.026 459.167 545.667 458.6 546.106C458.034 546.546 457.32 546.75 456.607 546.675V546.747ZM496.784 501.644H503.481C508.349 501.644 511.39 507.134 511.39 507.134C501.039 510.107 496.784 501.573 496.784 501.573V501.644ZM424.954 536.325H431.65C436.519 536.325 439.56 541.801 439.56 541.801C429.209 544.86 424.954 536.325 424.954 536.325ZM464.017 497.012L467.93 502.459C470.785 506.433 468.087 512.094 468.087 512.094C459.577 505.404 464.017 497.012 464.017 497.012ZM503.609 531.093L507.507 536.54C510.362 540.5 507.664 546.175 507.664 546.175C499.155 539.528 503.609 531.093 503.609 531.093ZM430.465 515.239L433.521 509.278C435.762 504.989 442.087 504.732 442.087 504.732C439.974 515.339 430.451 515.239 430.451 515.239H430.465Z" fill="white"/>
</g>
<defs>
<clipPath id="clip0">
<rect width="636" height="548" fill="white"/>
</clipPath>
</defs>
</svg>
